<?xml version="1.0" encoding="utf-8"?>
<!-- Generator: Adobe Illustrator 24.2.3, SVG Export Plug-In . SVG Version: 6.00 Build 0)  -->
<svg version="1.1" id="Livello_1" xmlns="http://www.w3.org/2000/svg" xmlns:xlink="http://www.w3.org/1999/xlink" x="0px" y="0px"
	 viewBox="0 0 491 114" style="enable-background:new 0 0 491 114;" xml:space="preserve">
<style type="text/css">
	.st0{display:none;}
	.st1{display:inline;fill:#172642;stroke:#000000;stroke-miterlimit:10;}
	.st2{display:inline;fill:#1A355E;}
	.st3{fill:#FFFFFF;}
	.st4{fill:#FFFFFF;stroke:#FFFFFF;stroke-miterlimit:10;}
</style>
<g id="Livello_2_1_" class="st0">
	<rect class="st1" width="491" height="112.1"/>
</g>
<g id="Livello_1_1_">
	<g id="colore_sfondo" class="st0">
		<rect x="-18" y="-21.3" class="st2" width="527" height="155"/>
	</g>
	<g id="elearning">
		<desc>Created with Sketch.</desc>
		<g>
			<path class="st3" d="M339.3,54.9c-0.3,0-6.9-0.1-6.9-0.1l0,0c-0.1,0-0.1,0.9-0.1,1.3h7c0.1,0,0.5,0,0.4-0.4v-0.4
				c0-0.1,0-0.4,0-0.4S339.6,54.9,339.3,54.9z"/>
			<path id="Shape_14_" class="st3" d="M341.8,62.2c-0.1-0.1-0.1-0.2-0.1-0.3V48.8c0-0.1,0-0.2,0.1-0.3s0.2-0.1,0.3-0.1h1
				c0.1,0,0.2,0,0.3,0.1c0.1,0.1,0.1,0.2,0.1,0.3v11.9h6.7c0.1,0,0.3,0,0.4,0.1s0.1,0.2,0.1,0.3v0.8c0,0.1,0,0.2-0.1,0.3
				s-0.2,0.1-0.3,0.1h-8.2C342,62.3,341.9,62.3,341.8,62.2z"/>
			<path id="Shape_15_" class="st3" d="M395.4,49.4c-0.1-0.1-0.1-0.2-0.1-0.3v-1c0-0.1,0-0.2,0.1-0.3s0.2-0.1,0.3-0.1h1.2
				c0.1,0,0.2,0,0.3,0.1c0.1,0.1,0.1,0.2,0.1,0.3v1c0,0.1,0,0.2-0.1,0.3s-0.2,0.1-0.3,0.1h-1.2C395.6,49.5,395.5,49.4,395.4,49.4z
				 M395.5,61.8c-0.1-0.1-0.1-0.2-0.1-0.3V52c0-0.1,0-0.2,0.1-0.3s0.2-0.1,0.3-0.1h0.9c0.1,0,0.2,0,0.3,0.1c0.1,0.1,0.1,0.2,0.1,0.3
				v9.5c0,0.1,0,0.2-0.1,0.3s-0.2,0.1-0.3,0.1h-0.9C395.7,61.9,395.6,61.9,395.5,61.8z"/>
			<path id="Shape_16_" class="st3" d="M383.2,61.8c-0.1-0.1-0.1-0.2-0.1-0.3V52c0-0.1,0-0.2,0.1-0.3s0.2-0.1,0.3-0.1h0.9
				c0.1,0,0.3,0,0.3,0.1c0.1,0.1,0.1,0.2,0.1,0.3v0.9c0.4-0.5,0.9-0.9,1.4-1.1c0.5-0.3,1.2-0.4,2-0.4c1.3,0,2.3,0.4,3,1.2
				s1.1,1.9,1.1,3.3v5.7c0,0.1,0,0.2-0.1,0.3S392,62,391.9,62H391c-0.1,0-0.2,0-0.3-0.1c-0.1-0.1-0.1-0.2-0.1-0.3V56
				c0-1-0.2-1.7-0.7-2.3c-0.5-0.5-1.1-0.8-2-0.8s-1.5,0.3-2,0.8s-0.8,1.3-0.8,2.2v5.6c0,0.1,0,0.2-0.1,0.3s-0.2,0.1-0.3,0.1h-0.9
				C383.4,61.9,383.2,61.9,383.2,61.8z"/>
			<path id="Shape_17_" class="st3" d="M413.9,65.9c-0.7-0.4-1.1-0.8-1.4-1.3s-0.4-0.9-0.4-1.2c0-0.1,0-0.2,0.1-0.3s0.2-0.1,0.3-0.1
				h0.9c0.1,0,0.2,0,0.3,0.1s0.1,0.2,0.2,0.3c0.4,1.1,1.2,1.6,2.6,1.6c1,0,1.7-0.2,2.2-0.6s0.7-1.2,0.7-2.3v-1.4
				c-0.8,1-1.9,1.5-3.3,1.5s-2.5-0.5-3.2-1.4s-1.1-2.1-1.1-3.5v-0.6v-0.5c0-1.4,0.4-2.5,1.1-3.4s1.8-1.4,3.2-1.4
				c1.4,0,2.5,0.5,3.3,1.5V52c0-0.1,0-0.2,0.1-0.3s0.2-0.1,0.3-0.1h0.9c0.1,0,0.2,0,0.3,0.1c0.1,0.1,0.1,0.2,0.1,0.3v9.7
				c0,3.1-1.6,4.6-4.7,4.6C415.5,66.4,414.6,66.2,413.9,65.9z M418.7,59.6c0.5-0.6,0.7-1.3,0.8-2.2c0-0.1,0-0.4,0-0.7s0-0.6,0-0.7
				c0-0.9-0.3-1.6-0.8-2.2c-0.5-0.6-1.2-0.9-2.1-0.9c-1,0-1.7,0.3-2.1,0.9c-0.4,0.6-0.7,1.4-0.7,2.4v0.5v0.5c0,1,0.3,1.8,0.7,2.4
				c0.4,0.6,1.1,0.9,2.1,0.9C417.5,60.5,418.2,60.2,418.7,59.6z"/>
			<path id="Shape_19_" class="st3" d="M353.9,61.1c-0.8-0.9-1.3-2-1.3-3.5v-0.7v-0.7c0.1-1.4,0.5-2.6,1.3-3.5s1.9-1.3,3.3-1.3
				c1.5,0,2.6,0.5,3.4,1.4s1.2,2.2,1.2,3.8V57c0,0.1,0,0.2-0.1,0.3s-0.2,0.1-0.3,0.1h-7v0.2c0,0.9,0.3,1.6,0.8,2.2s1.2,0.9,2,0.9
				c0.6,0,1.1-0.1,1.5-0.4c0.4-0.2,0.7-0.5,0.9-0.8c0.1-0.2,0.2-0.3,0.3-0.3s0.2-0.1,0.3-0.1h0.9c0.1,0,0.2,0,0.3,0.1
				c0.1,0.1,0.1,0.2,0.1,0.3c0,0.3-0.2,0.6-0.5,1.1c-0.4,0.4-0.9,0.8-1.5,1.1c-0.7,0.3-1.4,0.5-2.3,0.5
				C355.8,62.4,354.8,62,353.9,61.1z M360,56.2L360,56.2c0-1-0.3-1.8-0.8-2.4c-0.5-0.6-1.2-0.9-2-0.9c-0.9,0-1.6,0.3-2,0.9
				c-0.4,0.6-0.7,1.4-0.7,2.3v0.1L360,56.2L360,56.2z"/>
			<path id="Shape_1_" class="st3" d="M321.9,61.1c-0.8-0.9-1.3-2-1.3-3.5v-0.7v-0.7c0.1-1.4,0.5-2.6,1.3-3.5s1.9-1.3,3.3-1.3
				c1.5,0,2.6,0.5,3.4,1.4s1.2,2.2,1.2,3.8V57c0,0.1,0,0.2-0.1,0.3s-0.2,0.1-0.3,0.1h-7v0.2c0,0.9,0.3,1.6,0.8,2.2s1.2,0.9,2,0.9
				c0.6,0,1.1-0.1,1.5-0.4c0.4-0.2,0.7-0.5,0.9-0.8c0.1-0.2,0.2-0.3,0.3-0.3c0.1,0,0.2-0.1,0.3-0.1h0.9c0.1,0,0.2,0,0.3,0.1
				c0.1,0.1,0.1,0.2,0.1,0.3c0,0.3-0.2,0.6-0.5,1.1c-0.4,0.4-0.9,0.8-1.5,1.1c-0.7,0.3-1.4,0.5-2.3,0.5
				C323.8,62.4,322.8,62,321.9,61.1z M328,56.2L328,56.2c0-1-0.3-1.8-0.8-2.4c-0.5-0.6-1.2-0.9-2-0.9c-0.9,0-1.6,0.3-2,0.9
				c-0.4,0.6-0.7,1.4-0.7,2.3v0.1L328,56.2L328,56.2z"/>
			<path id="Shape_2_" class="st3" d="M400,61.8c-0.1-0.1-0.1-0.2-0.1-0.3V52c0-0.1,0-0.2,0.1-0.3s0.2-0.1,0.3-0.1h0.9
				c0.1,0,0.3,0,0.3,0.1c0.1,0.1,0.1,0.2,0.1,0.3v0.9c0.4-0.5,0.9-0.9,1.4-1.1c0.5-0.3,1.2-0.4,2-0.4c1.3,0,2.3,0.4,3,1.2
				s1.1,1.9,1.1,3.3v5.7c0,0.1,0,0.2-0.1,0.3s-0.2,0.1-0.3,0.1h-0.9c-0.1,0-0.2,0-0.3-0.1c-0.1-0.1-0.1-0.2-0.1-0.3V56
				c0-1-0.2-1.7-0.7-2.3c-0.5-0.5-1.1-0.8-2-0.8s-1.5,0.3-2,0.8s-0.8,1.3-0.8,2.2v5.6c0,0.1,0,0.2-0.1,0.3s-0.2,0.1-0.3,0.1h-0.9
				C400.2,61.9,400,61.9,400,61.8z"/>
			<path id="Shape_3_" class="st3" d="M365.9,61.8c-0.6-0.3-1-0.6-1.3-1.1s-0.5-1-0.5-1.5c0-0.9,0.4-1.6,1.1-2.2
				c0.7-0.6,1.7-0.9,3-1.1l3-0.4v-0.6c0-1.4-0.8-2.1-2.4-2.1c-0.6,0-1.1,0.1-1.5,0.4c-0.4,0.2-0.7,0.5-0.8,0.9
				c-0.1,0.1-0.1,0.2-0.2,0.3c-0.1,0-0.1,0.1-0.3,0.1h-0.8c-0.1,0-0.2,0-0.3-0.1c-0.1-0.1-0.1-0.2-0.1-0.3c0-0.3,0.1-0.7,0.4-1.1
				c0.3-0.4,0.7-0.8,1.3-1.1c0.6-0.3,1.3-0.5,2.2-0.5c1.5,0,2.6,0.3,3.2,1s1,1.6,1,2.6v6.5c0,0.1,0,0.2-0.1,0.3s-0.2,0.1-0.3,0.1
				h-0.9c-0.1,0-0.2,0-0.3-0.1c-0.1-0.1-0.1-0.2-0.1-0.3v-0.9c-0.3,0.4-0.7,0.8-1.3,1.1s-1.3,0.4-2.2,0.4
				C367.1,62.2,366.4,62,365.9,61.8z M370.3,59.8c0.6-0.6,0.8-1.4,0.8-2.5v-0.6l-2.4,0.3c-1,0.1-1.7,0.4-2.2,0.7s-0.7,0.7-0.7,1.2
				s0.2,1,0.7,1.3c0.4,0.3,1,0.4,1.6,0.4C369,60.7,369.7,60.4,370.3,59.8z"/>
			<path id="Shape_26_" class="st3" d="M375.2,61.6c-0.1-0.1-0.1-0.2-0.1-0.3v-9.5c0-0.1,0-0.2,0.1-0.3s0.2-0.1,0.3-0.1h0.8
				c0.1,0,0.3,0,0.4,0.1s0.1,0.2,0.1,0.4v0.9c0.5-0.9,1.5-1.4,2.8-1.4h0.8c0.1,0,0.3,0,0.3,0.1c0.1,0.1,0.1,0.2,0.1,0.3v0.7
				c0,0.1,0,0.2-0.1,0.3s-0.2,0.1-0.3,0.1h-1.1c-0.7,0-1.3,0.2-1.7,0.6c-0.4,0.4-0.6,1-0.6,1.7v5.9c0,0.1,0,0.2-0.1,0.3
				s-0.2,0.1-0.3,0.1h-0.9C375.4,61.7,375.3,61.7,375.2,61.6z"/>
		</g>
		<rect id="Rectangle-path_3_" x="305.8" y="27.7" class="st3" width="1" height="59"/>
	</g>
	<g id="logo_scritta">
		<g id="Page-1">
			<g id="Loghi-nuovi" transform="translate(-3203.000000, -2278.000000)">
				<g id="UniBG--eLearning" transform="translate(3203.000000, 2278.000000)">
					<g id="Group_1_">
						<polygon id="Shape_34_" class="st4" points="44.8,53.4 44.8,34.4 43.8,34.4 43.8,54.2 						"/>
						<rect id="Rectangle-path" x="48.2" y="38.7" class="st4" width="1" height="6.2"/>
						<polygon id="Shape_35_" class="st4" points="53.6,46.7 53.6,34.4 52.6,34.4 52.6,47.5 						"/>
						<path id="Shape_36_" class="st4" d="M37.6,35.6l5.1,3.9v-1.3l-4.8-3.6c-0.2-0.1-0.5-0.1-0.7,0l-5.6,4.7v-4.9h-1v30l0.9-0.7
							h0.1V45h11.1v-1H31.6v-3.3L37.6,35.6z"/>
						<path id="Shape_37_" class="st4" d="M36.4,84.3v-5.4c0-2.5-2-4.5-4.5-4.5s-4.5,2-4.5,4.5v5.4h1.1v-5.4c0-1.9,1.5-3.4,3.4-3.4
							c1.9,0,3.4,1.5,3.4,3.4v5.4H36.4z"/>
						<path id="Shape_38_" class="st4" d="M53.2,76.5V63.6c0-3.6-3.2-5.4-4.5-6h-0.1h-0.2h-0.1c-1.4,0.6-4.5,2.3-4.5,6v20.7h1.1
							V63.6c0-2.8,2.4-4.3,3.7-4.9c1.2,0.6,3.7,2,3.7,4.9v12.9H53.2z"/>
						<polygon id="Shape_39_" class="st4" points="36.9,53.8 36.9,62.9 37.9,62.1 37.9,53.8 						"/>
						<path id="Shape_40_" class="st4" d="M53.6,25.1h4.7c0-0.1,0-0.3,0-0.4l0,0l0,0c0-0.2,0-0.4,0.1-0.6h-4.7L53.6,25.1L53.6,25.1z
							"/>
						<path id="Shape_41_" class="st4" d="M59.1,27.1c-0.1-0.1-0.2-0.3-0.3-0.5L56.9,28v1.5l2.6-2c-0.1-0.1-0.2-0.2-0.3-0.3
							L59.1,27.1z"/>
						<path id="Shape_42_" class="st4" d="M56.9,21.2l1.9,1.5c0.1-0.1,0.2-0.3,0.3-0.4s0.1-0.1,0.2-0.2c0.1-0.1,0.2-0.2,0.3-0.3
							l-2.7-2V21.2L56.9,21.2z"/>
						<path id="Shape_43_" class="st4" d="M42.7,73.6l-10.5-8c-0.1-0.1-0.2-0.1-0.3-0.1s-0.2,0-0.3,0.1L20,74.5l0,0v1.3v8.6h1v-9.3
							l10.9-8.3l10.8,8.3V73.6z"/>
						<path id="Shape_44_" class="st4" d="M48.3,27.8l-5.2,4v1.5l5.6-4.3l5.6,4.3v-1.5l-5.2-4C48.8,27.7,48.5,27.7,48.3,27.8z"/>
						<polygon id="Shape_45_" class="st4" points="80.3,34.4 80.3,53.4 81.3,54.2 81.3,34.4 						"/>
						<rect id="Rectangle-path_1_" x="75.9" y="38.7" class="st4" width="1" height="6.2"/>
						<polygon id="Shape_46_" class="st4" points="71.5,34.4 71.5,46.7 72.5,47.5 72.5,34.4 						"/>
						<path id="Shape_47_" class="st4" d="M65.6,60.7c0-1.7-1.4-3.1-3.1-3.1c-1.7,0-3.1,1.4-3.1,3.1s1.4,3.1,3.1,3.1
							S65.6,62.4,65.6,60.7z M60.4,60.7c0-1.2,0.9-2.1,2.1-2.1s2.1,0.9,2.1,2.1s-0.9,2.1-2.1,2.1S60.4,61.9,60.4,60.7z"/>
						<path id="Shape_48_" class="st4" d="M6.7,86.8h111.8c0.2-0.3,0.3-0.7,0.4-1H6.2C6.4,86.1,6.5,86.4,6.7,86.8z"/>
						<path id="Shape_49_" class="st4" d="M81.3,57.6L81.3,57.6L81.3,57.6v-1.2v-0.1L62.9,42.2c-0.1-0.1-0.2-0.1-0.3-0.1l0,0l0,0
							c-0.1,0-0.2,0-0.3,0.1L43.9,56.3v0.1v1.2l0,0l0,0l0,0l18.8-14.3l0,0l0,0L81.3,57.6L81.3,57.6z"/>
						<path id="Shape_50_" class="st4" d="M82.4,43.8v1h11.1v18.7h0.1l0.9,0.7v-30h-1v4.9l-5.6-4.7c-0.2-0.2-0.5-0.2-0.7,0L82.4,38
							v1.3l5.1-3.9l6,5v3.3L82.4,43.8L82.4,43.8z"/>
						<path id="Shape_51_" class="st4" d="M97.7,84.3v-5.4c0-2.5-2-4.5-4.5-4.5s-4.5,2-4.5,4.5v5.4h1.1v-5.4c0-1.9,1.5-3.4,3.4-3.4
							s3.4,1.5,3.4,3.4v5.4H97.7z"/>
						<path id="Shape_52_" class="st4" d="M67,84.3v-6.7c0-2.5-2-4.5-4.5-4.5s-4.5,2-4.5,4.5v6.7h1.1v-6.7c0-1.9,1.5-3.4,3.4-3.4
							s3.4,1.5,3.4,3.4v6.7H67z"/>
						<path id="Shape_53_" class="st4" d="M81.3,84.3V63.6c0-3.6-3.2-5.4-4.5-6h-0.1h-0.2h-0.1c-1.4,0.6-4.5,2.3-4.5,6v12.9H73V63.6
							c0-2.8,2.4-4.3,3.7-4.9c1.2,0.6,3.7,2,3.7,4.9v20.7H81.3z"/>
						<polygon id="Shape_54_" class="st4" points="88.2,62.9 88.2,53.8 87.1,53.8 87.1,62.1 						"/>
						<path id="Shape_55_" class="st4" d="M13.6,46.2L13.6,46.2c-0.1,0.2-0.2,0.5-0.2,0.7c-0.1,0.2-0.1,0.4-0.2,0.6
							c-0.1,0.4-0.2,0.8-0.3,1.1c-0.1,0.4-0.2,0.8-0.3,1.1s-0.1,0.5-0.2,0.8c-0.1,0.4-0.2,0.8-0.3,1.1s-0.1,0.6-0.2,0.8
							c-0.1,0.4-0.2,0.9-0.2,1.3c0,0.2-0.1,0.4-0.1,0.6c-0.1,0.5-0.2,1.1-0.2,1.7c0,0.2,0,0.3-0.1,0.5c-0.1,0.5-0.1,1-0.2,1.5
							c0,0.1,0,0.2,0,0.4c0,0.6-0.1,1.2-0.1,1.8c0,0.1,0,0.3,0,0.4c0,0.6,0,1.2,0,1.9c0,0.6,0,1.2,0,1.9c0,0.1,0,0.3,0,0.4
							c0,0.6,0.1,1.2,0.1,1.8c0,0.1,0,0.2,0,0.3c0,0.5,0.1,1,0.2,1.5c0,0.2,0,0.3,0.1,0.5c0.1,0.6,0.1,1.1,0.2,1.7
							c0,0.2,0.1,0.4,0.1,0.6c0.1,0.4,0.2,0.9,0.2,1.3c0.1,0.3,0.1,0.5,0.2,0.8c0.1,0.4,0.2,0.8,0.3,1.2c0.1,0.3,0.1,0.5,0.2,0.8
							c0.1,0.4,0.2,0.8,0.3,1.2c0.1,0.4,0.2,0.7,0.3,1.1c0.1,0.2,0.1,0.4,0.2,0.6c0,0.1,0.1,0.3,0.1,0.4h1.1
							c-0.1-0.3-0.2-0.6-0.3-0.9c0-0.1-0.1-0.2-0.1-0.3c-0.2-0.7-0.4-1.4-0.6-2.1c0-0.1,0-0.2-0.1-0.2c-0.4-1.5-0.7-3.1-1-4.7
							c0-0.2,0-0.3-0.1-0.5c-0.1-0.6-0.2-1.2-0.2-1.8c0-0.2-0.1-0.5-0.1-0.7C12,66.8,12,66.3,12,65.7c0-0.2,0-0.5,0-0.7
							c0-0.8-0.1-1.6-0.1-2.4c0-0.8,0-1.6,0.1-2.4c0-0.2,0-0.5,0-0.7c0-0.6,0.1-1.1,0.1-1.7c0-0.2,0-0.5,0.1-0.7
							c0.1-0.6,0.1-1.2,0.2-1.8c0-0.2,0-0.3,0.1-0.5c0.2-1.6,0.6-3.2,1-4.7c0-0.1,0-0.1,0.1-0.2c0.2-0.7,0.4-1.4,0.6-2.1
							c0-0.1,0-0.2,0.1-0.2c3.7-11.8,11.6-21.7,22-28l0.1-0.1c0.6-0.4,1.2-0.7,1.8-1c0.1-0.1,0.3-0.2,0.4-0.2c0.5-0.3,1-0.5,1.5-0.8
							c0.2-0.1,0.5-0.2,0.7-0.4c0.4-0.2,0.8-0.4,1.2-0.5c0.3-0.2,0.7-0.3,1-0.5c0.2-0.1,0.4-0.2,0.6-0.3c1.8-0.7,3.7-1.4,5.6-1.9
							h0.1c0.6-0.2,1.2-0.3,1.7-0.4c0.2,0,0.4-0.1,0.5-0.1c0.5-0.1,1.1-0.2,1.6-0.3c0.3,0,0.5-0.1,0.8-0.1c0.5-0.1,1-0.2,1.4-0.2
							c0.3,0,0.7-0.1,1-0.1c0.4-0.1,0.8-0.1,1.3-0.1c0.4,0,0.9-0.1,1.3-0.1c0.3,0,0.7,0,1-0.1c0.8,0,1.6-0.1,2.4-0.1s1.6,0,2.4,0.1
							c0.3,0,0.7,0,1,0.1c0.4,0,0.9,0.1,1.3,0.1s0.8,0.1,1.3,0.1c0.3,0,0.7,0.1,1,0.1c0.5,0.1,1,0.1,1.4,0.2c0.3,0,0.5,0.1,0.8,0.1
							c0.5,0.1,1.1,0.2,1.6,0.3c0.2,0,0.4,0.1,0.5,0.1c0.6,0.1,1.2,0.3,1.7,0.4h0.1c1.9,0.5,3.7,1.1,5.6,1.9
							c0.2,0.1,0.4,0.2,0.6,0.3c0.4,0.1,0.7,0.3,1,0.5c0.4,0.2,0.8,0.3,1.2,0.5c0.2,0.1,0.5,0.2,0.7,0.4c0.5,0.2,1,0.5,1.5,0.8
							c0.2,0.1,0.3,0.2,0.4,0.2c0.6,0.3,1.2,0.7,1.8,1l0.1,0.1c10.3,6.3,18.3,16.2,22,28c0,0.1,0,0.2,0.1,0.2
							c0.2,0.7,0.4,1.4,0.6,2.1c0,0.1,0,0.1,0.1,0.2c0.4,1.5,0.7,3.1,1,4.7c0,0.2,0,0.3,0.1,0.5c0.1,0.6,0.2,1.2,0.2,1.8
							c0,0.2,0.1,0.5,0.1,0.7c0.1,0.6,0.1,1.1,0.1,1.7c0,0.2,0,0.5,0,0.7c0,0.8,0.1,1.6,0.1,2.4c0,0.8,0,1.6-0.1,2.4
							c0,0.2,0,0.5,0,0.7c0,0.6-0.1,1.1-0.1,1.7c0,0.2,0,0.5-0.1,0.7c-0.1,0.6-0.1,1.2-0.2,1.8c0,0.2,0,0.3-0.1,0.5
							c-0.2,1.6-0.6,3.2-1,4.7c0,0.1,0,0.2-0.1,0.2c-0.2,0.7-0.4,1.4-0.6,2.1c0,0.1-0.1,0.2-0.1,0.3c-0.1,0.3-0.2,0.6-0.3,0.9h1.1
							c0-0.1,0.1-0.3,0.1-0.4c0.1-0.2,0.1-0.4,0.2-0.6c0.1-0.4,0.2-0.7,0.3-1.1c0.1-0.4,0.2-0.8,0.3-1.2c0.1-0.3,0.1-0.5,0.2-0.8
							c0.1-0.4,0.2-0.8,0.3-1.2c0.1-0.3,0.1-0.5,0.2-0.8c0.1-0.4,0.2-0.9,0.2-1.3c0-0.2,0.1-0.4,0.1-0.6c0.1-0.6,0.2-1.1,0.2-1.7
							c0-0.2,0-0.3,0.1-0.5c0.1-0.5,0.1-1,0.2-1.5c0-0.1,0-0.2,0-0.3c0-0.6,0.1-1.2,0.1-1.8c0-0.1,0-0.3,0-0.4c0-0.6,0-1.2,0-1.9
							c0-0.6,0-1.2,0-1.9c0-0.1,0-0.3,0-0.4c0-0.6-0.1-1.2-0.1-1.8c0-0.1,0-0.2,0-0.4c0-0.5-0.1-1-0.2-1.5c0-0.2,0-0.3-0.1-0.5
							c-0.1-0.6-0.1-1.1-0.2-1.7c0-0.2-0.1-0.4-0.1-0.6c-0.1-0.4-0.2-0.9-0.2-1.3c-0.1-0.3-0.1-0.6-0.2-0.8
							c-0.1-0.4-0.2-0.8-0.3-1.1c-0.1-0.3-0.1-0.5-0.2-0.8c-0.1-0.4-0.2-0.8-0.3-1.1c-0.1-0.4-0.2-0.8-0.3-1.1
							c-0.1-0.2-0.1-0.4-0.2-0.6c-0.1-0.3-0.2-0.5-0.2-0.8l0,0C107.9,37,102.4,29,95.2,23l0,0c-2-1.7-4.1-3.2-6.3-4.5
							c-0.1-0.1-0.2-0.1-0.3-0.2c-0.5-0.3-1-0.6-1.4-0.8c-0.3-0.2-0.6-0.3-0.9-0.5c-0.2-0.1-0.4-0.2-0.6-0.3
							c-0.5-0.3-1.1-0.5-1.6-0.8c-0.1,0-0.2-0.1-0.3-0.1c-5.3-2.4-11-4-17.1-4.6h-0.1c-0.7-0.1-1.4-0.1-2.1-0.1c-0.1,0-0.2,0-0.3,0
							c-0.7,0-1.4,0-2.1,0c-0.7,0-1.4,0-2.1,0c-0.1,0-0.2,0-0.3,0c-0.7,0-1.4,0.1-2.1,0.1h-0.1c-6,0.5-11.8,2.1-17.1,4.6
							c-0.1,0-0.2,0.1-0.3,0.1c-0.6,0.3-1.1,0.5-1.6,0.8c-0.2,0.1-0.4,0.2-0.6,0.3c-0.3,0.2-0.6,0.3-0.9,0.5c-0.5,0.3-1,0.5-1.4,0.8
							c-0.1,0.1-0.2,0.1-0.3,0.2C33.1,19.8,31,21.3,29,23l0,0C22.2,29.1,16.7,37,13.6,46.2z"/>
						<path id="Shape_56_" class="st4" d="M102.2,89.5c-5.1,0-9.2,4.1-9.3,9.2h-1.1c-0.1-5.1-4.2-9.2-9.3-9.2s-9.2,4.1-9.3,9.2h-1.1
							c-0.1-5.1-4.2-9.2-9.3-9.2s-9.2,4.1-9.3,9.2h-1.1c-0.1-5.1-4.2-9.2-9.3-9.2s-9.2,4.1-9.3,9.2h-1.1c-0.1-5.1-4.2-9.2-9.3-9.2
							c-5,0-9.1,3.9-9.3,8.8c0.3,0.5,0.7,0.9,1,1.4v-0.9c0-4.6,3.7-8.3,8.3-8.3c4.5,0,8.2,3.6,8.3,8.1h-0.9v1.1h1v2.3
							c-0.9-0.8-1.9-1.5-2.8-2.3h-1.6c0.8,0.8,1.7,1.5,2.5,2.3l0,0c2,1.7,4.1,3.2,6.3,4.5c0.1,0.1,0.2,0.1,0.3,0.2
							c0.5,0.3,0.9,0.6,1.4,0.8c0.3,0.2,0.6,0.3,0.9,0.5c0.2,0.1,0.4,0.2,0.6,0.3c0.5,0.3,1.1,0.5,1.6,0.8c0.1,0,0.2,0.1,0.3,0.1
							c5.3,2.4,11,4,17.1,4.6h0.1c0.7,0.1,1.4,0.1,2.1,0.1c0.1,0,0.2,0,0.3,0c0.7,0,1.4,0,2.1,0s1.4,0,2.1,0c0.1,0,0.2,0,0.3,0
							c0.7,0,1.4-0.1,2.1-0.1h0.1c6-0.5,11.8-2.1,17.1-4.6c0.1,0,0.2-0.1,0.3-0.1c0.6-0.3,1.1-0.5,1.6-0.8c0.2-0.1,0.4-0.2,0.6-0.3
							c0.3-0.2,0.6-0.3,0.9-0.5c0.5-0.3,1-0.5,1.4-0.8c0.1-0.1,0.2-0.1,0.3-0.2c2.2-1.3,4.3-2.8,6.3-4.5l0,0
							c0.9-0.7,1.7-1.5,2.5-2.3H97c-0.9,0.8-1.8,1.6-2.8,2.3v-2.3h1v-1.1h-0.9c0.1-4.5,3.8-8.1,8.3-8.1c4.6,0,8.3,3.7,8.3,8.3v0.9
							c0.4-0.5,0.7-0.9,1-1.4C111.2,93.4,107.1,89.5,102.2,89.5z M33.4,103.7c-0.4-0.3-0.7-0.5-1.1-0.8v-3.2h1.1V103.7z M51,111.7
							c-0.5-0.1-1-0.2-1.5-0.4h-0.1c-1.9-0.5-3.7-1.1-5.6-1.9c-0.2-0.1-0.4-0.2-0.6-0.3c-0.4-0.1-0.7-0.3-1.1-0.5
							c-0.4-0.2-0.8-0.3-1.2-0.5c-0.2-0.1-0.5-0.2-0.7-0.4c-0.5-0.2-1-0.5-1.5-0.8c-0.2-0.1-0.3-0.2-0.5-0.2c-0.6-0.3-1.2-0.7-1.8-1
							l-0.1-0.1c-0.6-0.4-1.3-0.8-1.9-1.2l0,0v-4.7h1v-1.1h-0.9c0.1-4.5,3.8-8.1,8.3-8.1s8.2,3.6,8.3,8.1h-0.9v1.1h0.9L51,111.7
							L51,111.7z M53.2,112.2c-0.4-0.1-0.7-0.1-1.1-0.2V99.8h1.1V112.2z M70.8,112.4c-0.4,0.1-0.8,0.1-1.3,0.2c-0.3,0-0.7,0.1-1,0.1
							c-0.4,0.1-0.8,0.1-1.3,0.1c-0.4,0-0.9,0.1-1.3,0.1c-0.3,0-0.7,0-1,0.1c-0.8,0-1.6,0.1-2.4,0.1s-1.6,0-2.4-0.1
							c-0.3,0-0.7,0-1-0.1c-0.4,0-0.9-0.1-1.3-0.1c-0.4,0-0.8-0.1-1.3-0.1c-0.3,0-0.7-0.1-1-0.1c-0.4-0.1-0.9-0.1-1.3-0.2V99.8h1
							v-1.1h-0.9c0.1-4.5,3.8-8.1,8.3-8.1s8.2,3.6,8.3,8.1H70v1.1h1v12.6H70.8z M73,111.9c-0.4,0.1-0.7,0.2-1.1,0.2V99.7H73V111.9z
							 M88.8,105.7L88.8,105.7c-0.7,0.5-1.3,0.8-1.9,1.1c-0.2,0.1-0.3,0.2-0.5,0.2c-0.5,0.3-1,0.5-1.5,0.8c-0.2,0.1-0.5,0.2-0.7,0.4
							c-0.4,0.2-0.8,0.4-1.2,0.5c-0.3,0.2-0.7,0.3-1.1,0.5c-0.2,0.1-0.4,0.2-0.6,0.3c-1.8,0.7-3.7,1.4-5.6,1.9h-0.1
							c-0.5,0.1-1,0.3-1.5,0.4V99.9H75v-1.1h-0.9c0.1-4.5,3.8-8.1,8.3-8.1s8.2,3.6,8.3,8.1h-0.9v1.1h1v4.7l0,0
							C90,104.9,89.4,105.3,88.8,105.7z M92.8,103c-0.4,0.3-0.7,0.5-1.1,0.8v-4h1.1V103z"/>
						<path id="Shape_57_" class="st4" d="M71.5,24.1h-4.7c0,0.2,0.1,0.4,0.1,0.6l0,0l0,0c0,0.1,0,0.3,0,0.4h4.7L71.5,24.1
							L71.5,24.1z"/>
						<path id="Shape_58_" class="st4" d="M62.6,28.9L62.6,28.9C62.5,28.9,62.5,28.9,62.6,28.9L62.6,28.9L62.6,28.9
							c-0.3,0-0.4,0-0.5,0v4.7h0.5h0.5v-4.7C62.9,28.8,62.8,28.9,62.6,28.9L62.6,28.9L62.6,28.9z"/>
						<path id="Shape_59_" class="st4" d="M62.5,20.5L62.5,20.5L62.5,20.5C62.6,20.5,62.6,20.5,62.5,20.5L62.5,20.5L62.5,20.5
							L62.5,20.5c0.3,0,0.4,0,0.6,0v-4.8h-0.5H62v4.8C62.2,20.5,62.3,20.5,62.5,20.5L62.5,20.5L62.5,20.5z"/>
						<path id="Shape_60_" class="st4" d="M66,27.1c0,0.1-0.1,0.1-0.1,0.1c-0.1,0.1-0.2,0.2-0.3,0.3l2.6,2V28l-1.9-1.4
							C66.2,26.8,66.1,26.9,66,27.1z"/>
						<path id="Shape_61_" class="st4" d="M65.8,22c0.1,0.1,0.1,0.1,0.2,0.2s0.2,0.3,0.3,0.4l1.9-1.5v-1.5l-2.7,2
							C65.6,21.8,65.7,21.9,65.8,22z"/>
						<path id="Shape_62_" class="st4" d="M61.7,21.7c-0.1,0-0.2,0.1-0.3,0.1s-0.2,0.1-0.3,0.1S60.9,22,60.9,22
							c-0.1,0.1-0.2,0.1-0.3,0.2l-0.1,0.1c0,0,0,0-0.1,0.1s-0.2,0.2-0.3,0.3c0,0.1-0.1,0.1-0.1,0.2c-0.1,0.1-0.1,0.2-0.2,0.3
							l-0.1,0.1v0.1c0,0.1,0,0.1-0.1,0.2s-0.1,0.3-0.1,0.5v0.1c0,0.2-0.1,0.3-0.1,0.5l0,0l0,0c0,0.2,0,0.4,0.1,0.5v0.1
							c0,0.2,0.1,0.3,0.1,0.5c0,0,0,0.1,0.1,0.1l0,0c0,0,0,0.1,0.1,0.1c0.1,0.1,0.1,0.3,0.2,0.4l0.1,0.1c0.1,0.1,0.2,0.2,0.3,0.3
							l0,0l0.1,0.1c0.1,0.1,0.2,0.2,0.3,0.3c0.1,0,0.1,0.1,0.2,0.1c0.1,0.1,0.2,0.1,0.3,0.2c0.1,0,0.2,0.1,0.3,0.1s0.2,0.1,0.3,0.1
							c0.2,0,0.4,0.1,0.6,0.1l0,0l0,0c0,0,0,0,0.1,0c0,0,0,0,0.1,0l0,0l0,0c0.2,0,0.4,0,0.6-0.1c0.1,0,0.2-0.1,0.3-0.1
							s0.2,0,0.3-0.1s0.2-0.1,0.3-0.2c0.1,0,0.1-0.1,0.2-0.1c0.1-0.1,0.2-0.2,0.3-0.3l0.1-0.1l0,0c0.1-0.1,0.2-0.2,0.3-0.3l0.1-0.1
							c0.1-0.1,0.2-0.3,0.2-0.4c0,0,0-0.1,0.1-0.1l0,0c0,0,0-0.1,0.1-0.1c0.1-0.1,0.1-0.3,0.1-0.5v-0.1c0-0.2,0.1-0.4,0.1-0.5l0,0
							l0,0c0-0.2,0-0.3-0.1-0.5v-0.1c0-0.2-0.1-0.3-0.1-0.5c0-0.1,0-0.1-0.1-0.2v-0.1l-0.1-0.1c-0.1-0.1-0.1-0.2-0.2-0.3
							c0-0.1-0.1-0.1-0.1-0.2c-0.1-0.1-0.2-0.2-0.3-0.3c0,0,0,0-0.1-0.1l-0.1-0.1c-0.1-0.1-0.2-0.1-0.3-0.2c-0.1,0-0.2-0.1-0.2-0.1
							c-0.1,0-0.2-0.1-0.3-0.1s-0.2-0.1-0.3-0.1s-0.2,0-0.2-0.1c-0.2,0-0.4-0.1-0.6-0.1l0,0l0,0l0,0c0,0,0,0-0.1,0c0,0,0,0-0.1,0
							l0,0l0,0l0,0c-0.2,0-0.4,0-0.6,0.1C61.8,21.7,61.7,21.7,61.7,21.7z M62.5,22.6L62.5,22.6C62.6,22.6,62.6,22.6,62.5,22.6
							c0.6,0,1,0.1,1.3,0.4c0.3,0.2,0.6,0.6,0.7,0.9c0.1,0.2,0.2,0.5,0.2,0.8c0,0.2,0,0.4-0.1,0.7c-0.1,0.4-0.4,0.7-0.7,1
							c-0.4,0.3-0.8,0.5-1.3,0.5c0,0,0,0-0.1,0c0,0,0,0-0.1,0c-0.5,0-1-0.2-1.3-0.5s-0.5-0.6-0.7-1c-0.1-0.2-0.1-0.4-0.1-0.7
							c0-0.3,0.1-0.5,0.2-0.8c0.2-0.4,0.4-0.7,0.7-0.9C61.6,22.7,62,22.6,62.5,22.6z"/>
						<path id="Shape_63_" class="st4" d="M105.1,84.3v-8.6v-1.3l0,0l-11.6-8.9c-0.1-0.1-0.2-0.1-0.3-0.1c-0.1,0-0.2,0-0.3,0.1
							l-10.5,8v1.3l10.8-8.3l10.9,8.3v9.3h1V84.3z"/>
						<path id="Shape_64_" class="st4" d="M82,31.8l-5.2-4c-0.2-0.2-0.5-0.2-0.7,0l-5.2,4v1.5l5.6-4.3l5.6,4.3L82,31.8L82,31.8z"/>
						<path id="Shape_65_" class="st4" d="M5.7,74.5c-0.1-0.1-0.3-0.2-0.4-0.3c-0.2-0.1-0.3-0.1-0.5,0c-0.2,0-0.3,0.1-0.4,0.2
							s-0.2,0.2-0.3,0.4c0,0.2-0.1,0.3,0,0.5s0.1,0.3,0.2,0.4s0.2,0.2,0.4,0.3c0.2,0.1,0.3,0.1,0.5,0c0.2,0,0.3-0.1,0.4-0.2
							s0.2-0.3,0.3-0.4c0.1-0.2,0.1-0.3,0-0.5C5.9,74.8,5.9,74.7,5.7,74.5z"/>
						<path id="Shape_66_" class="st4" d="M5.2,68.2c0.3-0.2,0.4-0.4,0.6-0.7c0.1-0.3,0.2-0.6,0.1-1c0-0.4-0.1-0.7-0.3-1
							c-0.2-0.3-0.4-0.5-0.7-0.6c-0.3-0.1-0.6-0.2-0.9-0.2l-3.3,0.2c-0.1,0-0.1,0.1-0.1,0.1l0.1,0.8c0,0.1,0,0.1,0.1,0.1l3.3-0.2
							c0.3,0,0.5,0,0.6,0.2C4.9,66,5,66.2,5,66.5s0,0.5-0.2,0.6c-0.1,0.2-0.3,0.3-0.6,0.3l-3.3,0.2c-0.1,0-0.1,0.1-0.1,0.1l0.1,0.8
							c0,0.1,0,0.1,0.1,0.1l3.3-0.2C4.6,68.5,4.9,68.4,5.2,68.2z"/>
						<path id="Shape_67_" class="st4" d="M5.5,62.1C5.6,62.1,5.6,62.1,5.5,62.1l0.1-0.9c0-0.1,0-0.1-0.1-0.1l-3-0.1l0,0l0,0
							l3.1-1.7c0.1,0,0.1-0.1,0.1-0.1v-0.7c0-0.1,0-0.1-0.1-0.1l-4.8-0.2c-0.1,0-0.1,0-0.1,0.1v0.8c0,0.1,0,0.1,0.1,0.1l2.9,0.1l0,0
							l0,0L0.6,61c-0.1,0-0.1,0.1-0.1,0.1v0.7c0,0.1,0,0.1,0.1,0.1L5.5,62.1z"/>
						<path id="Shape_68_" class="st4" d="M6.1,54.7l-4.8-0.6c-0.1,0-0.1,0-0.1,0.1L1.1,55c0,0.1,0,0.1,0.1,0.1L6,55.7
							c0.1,0,0.1,0,0.1-0.1V54.7C6.2,54.7,6.2,54.7,6.1,54.7z"/>
						<path id="Shape_69_" class="st4" d="M1.7,51.3L1.7,51.3l5.1-0.4c0.1,0,0.1,0,0.1-0.1L7.1,50c0-0.1,0-0.1-0.1-0.2l-4.4-2.5H2.5
							c0,0,0,0-0.1,0.1l-0.2,0.8c0,0.1,0,0.1,0.1,0.2l3.2,1.7l0,0l0,0l-3.6,0.2c-0.1,0-0.1,0-0.1,0.1l-0.2,0.8L1.7,51.3z"/>
						<path id="Shape_70_" class="st4" d="M8,46.1c0.1,0,0.1,0,0.2-0.1l1-3.1c0-0.1,0-0.1-0.1-0.2l-0.6-0.2c-0.1,0-0.1,0-0.2,0.1
							l-0.7,2.2c0,0,0,0-0.1,0l-1.1-0.4c0,0,0,0,0-0.1l0.5-1.4c0-0.1,0-0.1-0.1-0.2l-0.6-0.2c-0.1,0-0.1,0-0.2,0.1L5.5,44
							c0,0,0,0-0.1,0l-1-0.3c0,0,0,0,0-0.1l0.7-2.2c0-0.1,0-0.1-0.1-0.2L4.4,41c-0.1,0-0.1,0-0.2,0.1l-1,3.1c0,0.1,0,0.1,0.1,0.2
							L8,46.1z"/>
						<path id="Shape_71_" class="st4" d="M9.9,40.6c0.1,0,0.1,0,0.2-0.1l0.3-0.7c0-0.1,0-0.1-0.1-0.2l-1.8-0.8c0,0,0,0,0-0.1
							l0.3-0.6c0,0,0,0,0.1,0h2.2c0.1,0,0.1,0,0.1-0.1l0.3-0.7v-0.1c0,0,0,0,0-0.1c0,0,0,0-0.1,0H9.2l0,0l0,0c0-0.3,0-0.6-0.2-0.8
							c-0.1-0.2-0.4-0.4-0.7-0.6c-0.3-0.1-0.5-0.2-0.8-0.2S7,35.6,6.8,35.8s-0.4,0.4-0.5,0.7l-0.8,1.8c0,0.1,0,0.1,0.1,0.2L9.9,40.6
							z M7.1,37.1c0.1-0.2,0.2-0.3,0.4-0.4c0.2-0.1,0.3-0.1,0.5,0s0.3,0.2,0.3,0.4c0.1,0.2,0,0.3,0,0.5l-0.4,0.9c0,0,0,0-0.1,0
							L6.7,38c0,0,0,0,0-0.1L7.1,37.1z"/>
						<path id="Shape_72_" class="st4" d="M9.5,33.4c0.3,0.2,0.5,0.2,0.8,0.2s0.5-0.1,0.7-0.2c0.2-0.1,0.4-0.3,0.7-0.5
							c0.2-0.2,0.4-0.3,0.5-0.4c0.1-0.1,0.2-0.1,0.3-0.2c0.1,0,0.2,0,0.3,0.1s0.2,0.2,0.3,0.4c0,0.2,0,0.4-0.1,0.6
							c-0.1,0.2-0.3,0.4-0.5,0.5s-0.4,0.1-0.6,0l-0.1-0.1c-0.1,0-0.1,0-0.1,0.1l-0.4,0.7c0,0.1,0,0.1,0,0.2l0.1,0.1
							c0.3,0.2,0.5,0.2,0.8,0.2s0.5-0.1,0.8-0.3s0.5-0.4,0.7-0.8c0.2-0.3,0.3-0.6,0.3-0.9c0-0.3,0-0.6-0.1-0.8s-0.3-0.4-0.5-0.6
							c-0.3-0.2-0.5-0.2-0.8-0.2c-0.2,0-0.5,0.1-0.6,0.2c-0.2,0.1-0.4,0.3-0.7,0.5c-0.2,0.2-0.4,0.4-0.6,0.5
							c-0.1,0.1-0.3,0.1-0.4,0.2c-0.1,0-0.2,0-0.3-0.1s-0.2-0.2-0.2-0.4s0-0.3,0.1-0.5s0.3-0.4,0.5-0.5s0.4-0.1,0.6,0h0.1
							c0,0,0.1,0,0.1-0.1l0.4-0.7c0-0.1,0-0.1,0-0.2h-0.1c-0.3-0.2-0.5-0.2-0.8-0.2s-0.6,0.1-0.8,0.3c-0.3,0.2-0.5,0.4-0.7,0.7
							c-0.2,0.3-0.3,0.6-0.3,0.9s0,0.6,0.1,0.8C9.1,33,9.2,33.2,9.5,33.4z"/>
						<path id="Shape_73_" class="st4" d="M15.8,30c0.1,0,0.1,0,0.2,0l0.4-0.6c0-0.1,0-0.1,0-0.2l-3.9-2.8c-0.1,0-0.1,0-0.2,0
							L11.9,27c0,0.1,0,0.1,0,0.2L15.8,30z"/>
						<path id="Shape_74_" class="st4" d="M14.6,24.6c0.1,0.1,0.1,0,0.2,0l0.8-0.9c0,0,0,0,0.1,0l3.1,2.6c0.1,0.1,0.1,0,0.2,0
							l0.5-0.6c0.1-0.1,0-0.1,0-0.2l-3.1-2.6c0,0,0,0,0-0.1l0.8-1c0.1-0.1,0-0.1,0-0.2l-0.5-0.4c-0.1-0.1-0.1,0-0.2,0l-2.3,2.7
							c-0.1,0.1,0,0.1,0,0.2L14.6,24.6z"/>
						<path id="Shape_75_" class="st4" d="M21.4,23.1C21.4,23.1,21.5,23.2,21.4,23.1c0.1,0.1,0.1,0.1,0.2,0l0.6-0.6
							c0,0,0.1-0.1,0-0.2l-0.3-0.6c0,0,0,0,0-0.1l1.3-1.2c0,0,0,0,0.1,0l0.6,0.3c0.1,0,0.1,0,0.2,0l0.6-0.6c0,0,0,0,0-0.1
							c0,0,0,0,0-0.1l0,0l-4.5-2.4c-0.1,0-0.1,0-0.2,0l-0.8,0.7c0,0-0.1,0.1,0,0.2L21.4,23.1z M20.4,18.9L20.4,18.9l2,1.1
							c0,0,0,0,0,0.1L21.5,21c0,0,0,0-0.1,0L20.4,18.9L20.4,18.9z"/>
						<path id="Shape_76_" class="st4" d="M24.5,16.5c0.2,0.1,0.5,0.1,0.7,0c0.2,0,0.5-0.1,0.9-0.2c0.3-0.1,0.5-0.2,0.6-0.2
							s0.3,0,0.4,0s0.2,0.1,0.3,0.2c0.1,0.1,0.1,0.3,0.1,0.4c0,0.2-0.1,0.3-0.3,0.5c-0.2,0.2-0.4,0.3-0.7,0.3
							c-0.2,0-0.4-0.1-0.5-0.2l-0.1-0.1c0,0-0.1,0-0.2,0l-0.6,0.5c-0.1,0.1-0.1,0.1,0,0.2l0.1,0.1c0.2,0.2,0.4,0.4,0.7,0.5
							c0.3,0.1,0.5,0.1,0.8,0s0.6-0.2,0.9-0.5c0.3-0.2,0.5-0.5,0.7-0.7c0.1-0.3,0.2-0.5,0.2-0.8s-0.1-0.5-0.3-0.8
							c-0.2-0.2-0.4-0.4-0.6-0.4c-0.2-0.1-0.5-0.1-0.7,0c-0.2,0-0.5,0.1-0.8,0.2c-0.3,0.1-0.5,0.2-0.7,0.2s-0.3,0-0.4,0
							s-0.2-0.1-0.3-0.2c-0.1-0.1-0.1-0.3-0.1-0.4c0-0.2,0.2-0.3,0.3-0.4c0.2-0.2,0.5-0.3,0.7-0.3s0.4,0.1,0.5,0.3v0.1h0.1l0.6-0.5
							c0.1-0.1,0.1-0.1,0-0.2V14c-0.2-0.2-0.4-0.4-0.7-0.5c-0.3-0.1-0.6-0.1-0.9,0s-0.6,0.2-0.9,0.5c-0.3,0.2-0.5,0.4-0.6,0.7
							s-0.2,0.5-0.2,0.8s0.1,0.5,0.3,0.7C24,16.2,24.3,16.4,24.5,16.5z"/>
						<path id="Shape_77_" class="st4" d="M35.3,9.3c0.2,0.1,0.5,0.2,0.7,0.2s0.5,0,0.9,0c0.3,0,0.5,0,0.7,0c0.1,0,0.3,0,0.4,0.1
							c0.1,0.1,0.2,0.1,0.2,0.2c0.1,0.1,0.1,0.3,0,0.4c-0.1,0.2-0.2,0.3-0.4,0.4c-0.3,0.1-0.5,0.2-0.7,0.1c-0.2,0-0.4-0.2-0.4-0.3
							v-0.1c0-0.1-0.1-0.1-0.2,0l-0.7,0.3c-0.1,0-0.1,0.1-0.1,0.2l0.1,0.1c0.1,0.3,0.3,0.5,0.6,0.6c0.2,0.1,0.5,0.2,0.8,0.2
							s0.6-0.1,1-0.3c0.3-0.2,0.6-0.4,0.8-0.6s0.3-0.5,0.4-0.7c0-0.3,0-0.5-0.1-0.8C39.2,9,39,8.8,38.8,8.7s-0.4-0.2-0.7-0.2
							c-0.2,0-0.5,0-0.9,0c-0.3,0-0.6,0.1-0.7,0.1s-0.3,0-0.4-0.1c-0.1,0-0.2-0.1-0.2-0.2c-0.1-0.2-0.1-0.3,0-0.4s0.2-0.3,0.4-0.4
							c0.3-0.1,0.5-0.2,0.7-0.1s0.4,0.2,0.4,0.4v0.1h0.1l0.7-0.3c0.1,0,0.1-0.1,0.1-0.2V7.3C38.2,7,38,6.8,37.7,6.7
							c-0.2-0.1-0.5-0.2-0.8-0.2s-0.6,0.1-1,0.2c-0.3,0.1-0.6,0.3-0.8,0.6c-0.2,0.2-0.3,0.5-0.3,0.7c0,0.3,0,0.5,0.1,0.8
							C34.9,9,35.1,9.2,35.3,9.3z"/>
						<path id="Shape_78_" class="st4" d="M40.2,5.7c0,0.1,0.1,0.1,0.2,0.1l1.1-0.4c0,0,0,0,0.1,0l1.3,3.8c0,0.1,0.1,0.1,0.2,0.1
							L43.8,9c0.1,0,0.1-0.1,0.1-0.2L42.6,5c0,0,0,0,0-0.1l1.2-0.4c0.1,0,0.1-0.1,0.1-0.2l-0.2-0.6c0-0.1-0.1-0.1-0.2-0.1l-3.4,1.2
							C40,4.8,40,4.9,40,5L40.2,5.7z"/>
						<path id="Shape_79_" class="st4" d="M47.5,7c0.2,0.2,0.5,0.4,0.8,0.4c0.3,0.1,0.6,0.1,1,0S50,7.2,50.2,7s0.4-0.5,0.5-0.7
							c0.1-0.3,0.1-0.6,0-0.9l-0.8-3.2c0-0.1-0.1-0.1-0.1-0.1L49,2.3c-0.1,0-0.1,0.1-0.1,0.1l0.8,3.2c0.1,0.2,0,0.5-0.1,0.7
							s-0.3,0.3-0.5,0.4s-0.5,0-0.7-0.1S48.1,6.3,48,6.1l-0.8-3.2c0-0.1-0.1-0.1-0.1-0.1L46.3,3c-0.1,0-0.1,0.1-0.1,0.1L47,6.3
							C47.2,6.5,47.3,6.7,47.5,7z"/>
						<path id="Shape_80_" class="st4" d="M53.7,6.4l1.8-0.2c0.4,0,0.7-0.1,0.9-0.3c0.3-0.2,0.4-0.4,0.6-0.6
							c0.1-0.2,0.2-0.5,0.1-0.8l-0.2-2c0-0.3-0.1-0.6-0.3-0.8s-0.4-0.4-0.7-0.5s-0.6-0.1-1-0.1l-1.8,0.2C53,1.3,53,1.4,53,1.4
							l0.6,4.8C53.6,6.4,53.6,6.5,53.7,6.4z M54.1,2.2L55,2.1c0.2,0,0.4,0,0.6,0.2c0.2,0.1,0.2,0.3,0.3,0.6l0.2,1.6
							c0,0.2,0,0.5-0.1,0.6c-0.1,0.2-0.3,0.3-0.5,0.3l-0.9,0.1l0,0L54.1,2.2L54.1,2.2z"/>
						<path id="Shape_81_" class="st4" d="M59.8,5.8h0.8c0.1,0,0.1,0,0.1-0.1l-0.2-4.8c0-0.1,0-0.1-0.1-0.1h-0.8
							c-0.1,0-0.1,0-0.1,0.1L59.8,5.8C59.7,5.8,59.8,5.9,59.8,5.8z"/>
						<path id="Shape_82_" class="st4" d="M64.1,5.7c0.3,0.2,0.6,0.3,1,0.3s0.7,0,1-0.2c0.3-0.1,0.5-0.3,0.7-0.6
							c0.2-0.3,0.3-0.6,0.3-0.9l0.1-1.5c0-0.4,0-0.7-0.2-1c-0.1-0.3-0.4-0.5-0.6-0.7c-0.3-0.2-0.6-0.3-1-0.3s-0.7,0-1,0.2
							s-0.5,0.3-0.7,0.6s-0.3,0.6-0.3,0.9L63.3,4c0,0.4,0,0.7,0.2,1C63.6,5.3,63.9,5.5,64.1,5.7z M64.4,2.5c0-0.3,0.1-0.5,0.3-0.7
							c0.2-0.2,0.4-0.2,0.7-0.2c0.3,0,0.5,0.1,0.6,0.3c0.2,0.2,0.2,0.4,0.2,0.7l-0.1,1.6c0,0.3-0.1,0.5-0.3,0.7
							c-0.2,0.2-0.4,0.2-0.7,0.2c-0.3,0-0.5-0.1-0.6-0.3c-0.2-0.2-0.2-0.4-0.2-0.7L64.4,2.5z"/>
						<path id="Shape_83_" class="st4" d="M69.6,6.2l0.8,0.1c0.1,0,0.1,0,0.1-0.1l0.3-1.9l0,0l0.7,0.1l0,0l0.6,2.1
							c0,0.1,0.1,0.1,0.1,0.1L73,6.7h0.1c0,0,0,0,0-0.1c0,0,0,0,0-0.1l-0.6-2.1l0,0l0,0C72.8,4.3,73,4.2,73.2,4
							c0.2-0.2,0.3-0.5,0.4-0.8c0-0.3,0-0.6-0.1-0.8c-0.1-0.2-0.2-0.5-0.5-0.6c-0.2-0.2-0.5-0.3-0.8-0.3l-2-0.3
							c-0.1,0-0.1,0-0.1,0.1l-0.7,4.8C69.5,6.1,69.5,6.2,69.6,6.2z M71.1,2.2L71.1,2.2l1,0.1c0.2,0,0.4,0.1,0.5,0.3
							c0.1,0.1,0.1,0.3,0.1,0.5s-0.1,0.3-0.3,0.4c-0.1,0.1-0.3,0.1-0.5,0.1L71,3.5c0,0,0,0,0-0.1L71.1,2.2z"/>
						<path id="Shape_84_" class="st4" d="M76.4,7.3c0.2,0.2,0.5,0.4,0.9,0.5s0.7,0.1,1,0s0.6-0.2,0.8-0.4c0.2-0.2,0.4-0.5,0.5-0.8
							l0.8-3.1c0-0.1,0-0.1-0.1-0.2l-0.7-0.2c-0.1,0-0.1,0-0.2,0.1l-0.8,3.2c-0.1,0.2-0.2,0.4-0.4,0.5C78,7,77.8,7,77.5,7
							c-0.2-0.1-0.4-0.2-0.5-0.4c-0.1-0.2-0.1-0.4-0.1-0.7l0.8-3.2c0-0.1,0-0.1-0.1-0.2l-0.7-0.2c-0.1,0-0.1,0-0.2,0.1l-0.8,3.1
							c-0.1,0.3-0.1,0.6,0,0.9C76,6.9,76.1,7.1,76.4,7.3z"/>
						<path id="Shape_85_" class="st4" d="M82.3,9.3c0.1,0,0.1,0,0.2-0.1l1.2-2.9l0,0l0,0l0.2,1.4c0,0.1,0,0.1,0.1,0.1l0.3,0.1
							c0.1,0,0.1,0,0.2,0l1.1-0.8l0,0l0,0L84.4,10c0,0.1,0,0.1,0.1,0.2l0.7,0.3c0.1,0,0.1,0,0.2-0.1l1.8-4.5c0-0.1,0-0.1-0.1-0.2
							l-0.7-0.3c-0.1,0-0.1,0-0.2,0l-1.6,1.2l0,0l0,0l-0.4-2c0-0.1,0-0.1-0.1-0.1l-0.7-0.3c-0.1,0-0.1,0-0.2,0.1l-1.8,4.5
							c0,0.1,0,0.1,0.1,0.2L82.3,9.3z"/>
						<path id="Shape_86_" class="st4" d="M94.9,15.9c0.4,0.3,0.8,0.4,1.2,0.4s0.7-0.2,1-0.6c0.3-0.5,0.4-0.9,0.1-1.3l0,0l0,0
							c0.4,0.1,0.8-0.1,1.1-0.5c0.5-0.8,0.3-1.5-0.6-2.1l-1.5-1c-0.1,0-0.1,0-0.2,0l-2.7,4c0,0.1,0,0.1,0,0.2L94.9,15.9z M96.5,12
							L96.5,12l0.8,0.5c0.2,0.1,0.3,0.3,0.3,0.4c0,0.2,0,0.3-0.1,0.5s-0.2,0.2-0.4,0.3c-0.2,0-0.3,0-0.5-0.2L95.9,13c0,0,0,0,0-0.1
							L96.5,12z M95.3,13.7C95.3,13.6,95.3,13.6,95.3,13.7l0.8,0.5c0.2,0.1,0.3,0.3,0.3,0.4c0,0.2,0,0.3-0.1,0.5s-0.3,0.3-0.4,0.3
							c-0.2,0-0.3,0-0.5-0.2l-0.7-0.5c0,0,0,0,0-0.1L95.3,13.7z"/>
						<path id="Shape_87_" class="st4" d="M98.4,18.5l2.5,2.1c0.1,0.1,0.1,0,0.2,0l0.4-0.5c0.1-0.1,0-0.1,0-0.2l-1.8-1.5
							c0,0,0,0,0-0.1l0.8-0.9c0,0,0,0,0.1,0l1.1,1c0.1,0.1,0.1,0.1,0.2,0l0.4-0.5c0.1-0.1,0-0.1,0-0.2l-1.1-1c0,0,0,0,0-0.1l0.7-0.8
							c0,0,0,0,0.1,0l1.8,1.5c0.1,0.1,0.1,0,0.2,0l0.4-0.5c0.1-0.1,0-0.1,0-0.2l-2.5-2.1c-0.1-0.1-0.1,0-0.2,0l-3.1,3.6
							C98.3,18.4,98.3,18.5,98.4,18.5z"/>
						<path id="Shape_88_" class="st4" d="M102.7,22.5l0.5,0.6c0.1,0.1,0.1,0.1,0.2,0l1.4-1.3c0,0,0,0,0.1,0l0.5,0.5c0,0,0,0,0,0.1
							l-0.8,2c0,0.1,0,0.1,0,0.2l0.6,0.6c0,0,0,0,0.1,0c0,0,0,0,0.1,0c0,0,0,0,0-0.1l0.8-2.1l0,0l0,0c0.3,0.1,0.5,0.2,0.8,0.2
							s0.5-0.2,0.8-0.4c0.2-0.2,0.4-0.4,0.4-0.7c0.1-0.3,0.1-0.5,0-0.8s-0.2-0.5-0.4-0.7l-1.4-1.5c-0.1-0.1-0.1-0.1-0.2,0
							L102.7,22.5C102.7,22.3,102.7,22.4,102.7,22.5z M105.5,21.1l0.9-0.8c0,0,0,0,0.1,0l0.6,0.7c0.1,0.1,0.2,0.3,0.2,0.5
							s-0.1,0.3-0.2,0.5c-0.1,0.1-0.3,0.2-0.5,0.2s-0.3-0.1-0.5-0.2L105.5,21.1L105.5,21.1z"/>
						<path id="Shape_89_" class="st4" d="M107.5,26.6c-0.1,0.3-0.2,0.6-0.1,0.9s0.2,0.6,0.4,0.9c0.2,0.3,0.5,0.5,0.8,0.7
							c0.3,0.1,0.6,0.2,0.9,0.1c0.3,0,0.6-0.2,0.9-0.4l0.7-0.6c0.1,0,0.1-0.1,0-0.2l-1-1.3c-0.1-0.1-0.1-0.1-0.2,0l-0.5,0.4
							c-0.1,0.1-0.1,0.1,0,0.2l0.5,0.6c0,0,0,0,0,0.1l-0.3,0.2c-0.2,0.1-0.4,0.2-0.6,0.2s-0.4-0.2-0.5-0.4c-0.2-0.2-0.2-0.4-0.2-0.7
							c0-0.2,0.1-0.4,0.4-0.6l1.3-1c0.2-0.2,0.4-0.2,0.6-0.2s0.4,0.1,0.6,0.4c0.2,0.2,0.2,0.4,0.2,0.6s-0.1,0.4-0.3,0.5l0,0
							c0,0,0,0,0,0.1v0.1l0.5,0.6c0,0.1,0.1,0.1,0.2,0l0,0c0.2-0.2,0.4-0.4,0.5-0.7c0.1-0.3,0.1-0.6,0.1-0.9
							c-0.1-0.3-0.2-0.6-0.4-0.9c-0.2-0.3-0.5-0.5-0.8-0.7c-0.3-0.1-0.6-0.2-0.9-0.1c-0.3,0-0.6,0.2-0.9,0.4l-1.3,1
							C107.8,26,107.6,26.3,107.5,26.6z"/>
						<path id="Shape_90_" class="st4" d="M111.1,31.5c-0.2,0.3-0.2,0.6-0.2,0.9c0,0.3,0.1,0.6,0.3,1c0.2,0.3,0.4,0.6,0.7,0.7
							c0.3,0.2,0.6,0.2,0.9,0.2s0.6-0.1,0.9-0.3l1.3-0.8c0.3-0.2,0.5-0.4,0.7-0.7s0.2-0.6,0.2-0.9s-0.1-0.6-0.3-1
							c-0.2-0.3-0.4-0.6-0.7-0.7c-0.3-0.2-0.6-0.2-0.9-0.2s-0.6,0.1-0.9,0.3l-1.3,0.8C111.4,31,111.2,31.3,111.1,31.5z M111.8,32.3
							c0.1-0.2,0.2-0.4,0.5-0.6l1.4-0.8c0.2-0.1,0.5-0.2,0.7-0.1s0.4,0.2,0.5,0.4c0.1,0.2,0.2,0.5,0.1,0.7c-0.1,0.2-0.2,0.4-0.5,0.6
							l-1.4,0.8c-0.2,0.1-0.5,0.2-0.7,0.1c-0.2-0.1-0.4-0.2-0.5-0.4C111.8,32.7,111.7,32.5,111.8,32.3z"/>
						<path id="Shape_91_" class="st4" d="M113.4,37.3l0.3,0.7c0,0.1,0.1,0.1,0.2,0.1l2.8-1.3l0,0l0,0L116,38c0,0.1,0,0.1,0,0.2
							l0.2,0.3c0,0.1,0.1,0.1,0.1,0.1l1.4,0.2l0,0l0,0l-2.8,1.3c-0.1,0-0.1,0.1-0.1,0.2l0.3,0.7c0,0.1,0.1,0.1,0.2,0.1l4.4-2
							c0.1,0,0.1-0.1,0.1-0.2l-0.3-0.7c0-0.1-0.1-0.1-0.1-0.1l-2-0.3l0,0l0,0l1.1-1.7c0-0.1,0-0.1,0-0.2l-0.3-0.7
							c0-0.1-0.1-0.1-0.2-0.1l-4.4,2C113.4,37.2,113.4,37.2,113.4,37.3z"/>
						<path id="Shape_92_" class="st4" d="M116.1,43.5l1,3.1c0,0.1,0.1,0.1,0.2,0.1l0.6-0.2c0.1,0,0.1-0.1,0.1-0.2l-0.7-2.2
							c0,0,0,0,0-0.1l1.1-0.4c0,0,0,0,0.1,0L119,45c0,0.1,0.1,0.1,0.2,0.1l0.6-0.2c0.1,0,0.1-0.1,0.1-0.2l-0.5-1.4c0,0,0,0,0-0.1
							l1-0.3c0,0,0,0,0.1,0l0.7,2.2c0,0.1,0.1,0.1,0.2,0.1L122,45c0.1,0,0.1-0.1,0.1-0.2l-1-3.1c0-0.1-0.1-0.1-0.2-0.1l-4.6,1.5
							C116.1,43.4,116,43.5,116.1,43.5z"/>
						<path id="Shape_93_" class="st4" d="M117.7,49.2l0.2,0.8c0,0.1,0.1,0.1,0.1,0.1l2.9-0.6l0,0l0,0l-2.6,2.4c0,0-0.1,0.1-0.1,0.2
							l0.2,0.7c0,0.1,0.1,0.1,0.1,0.1l4.7-1c0.1,0,0.1-0.1,0.1-0.1l-0.2-0.7c0-0.1-0.1-0.1-0.1-0.1l-2.9,0.6l0,0l0,0l2.6-2.4
							c0,0,0.1-0.1,0-0.2l-0.2-0.7c0-0.1-0.1-0.1-0.1-0.1L117.7,49.2C117.8,49.1,117.7,49.1,117.7,49.2z"/>
						<path id="Shape_94_" class="st4" d="M119.8,58.6c0.2,0.1,0.5,0.2,0.8,0.2s0.5-0.1,0.7-0.3s0.3-0.4,0.4-0.6
							c0.1-0.2,0.2-0.5,0.2-0.8c0.1-0.3,0.1-0.5,0.2-0.7s0.1-0.3,0.2-0.3s0.2-0.1,0.3-0.1c0.2,0,0.3,0,0.4,0.1s0.2,0.3,0.2,0.5
							c0,0.3,0,0.5-0.1,0.7s-0.3,0.3-0.5,0.3h-0.1c0,0-0.1,0-0.1,0.1l0.1,0.8c0,0.1,0.1,0.1,0.1,0.1h0.1c0.3,0,0.6-0.1,0.8-0.3
							s0.4-0.4,0.5-0.7s0.1-0.6,0.1-1c0-0.3-0.1-0.6-0.3-0.9c-0.1-0.3-0.3-0.4-0.6-0.6c-0.2-0.1-0.5-0.2-0.8-0.1
							c-0.3,0-0.5,0.1-0.7,0.3s-0.3,0.4-0.4,0.6c-0.1,0.2-0.2,0.5-0.3,0.8s-0.1,0.5-0.2,0.6c0,0.1-0.1,0.2-0.2,0.3s-0.2,0.1-0.3,0.1
							c-0.2,0-0.3,0-0.4-0.1s-0.2-0.3-0.2-0.5c0-0.3,0-0.5,0.1-0.7s0.3-0.3,0.5-0.3h0.1c0.1,0,0.1,0,0.1-0.1l-0.1-0.8
							c0-0.1-0.1-0.1-0.1-0.1h-0.1c-0.3,0-0.6,0.1-0.8,0.3c-0.2,0.2-0.4,0.4-0.5,0.7s-0.1,0.6-0.1,1s0.1,0.7,0.3,1
							C119.4,58.3,119.6,58.5,119.8,58.6z"/>
						<path id="Shape_95_" class="st4" d="M124.4,61.4C124.4,61.3,124.4,61.3,124.4,61.4h-4.9c-0.1,0-0.1,0-0.1,0.1v0.8
							c0,0.1,0,0.1,0.1,0.1l4.8-0.1c0.1,0,0.1,0,0.1-0.1V61.4z"/>
						<path id="Shape_96_" class="st4" d="M123.7,65.4c-0.2-0.2-0.5-0.3-0.7-0.3c-0.3,0-0.5,0-0.8,0.2c-0.2,0.1-0.4,0.3-0.5,0.5
							s-0.3,0.5-0.4,0.8s-0.2,0.5-0.3,0.6c-0.1,0.1-0.1,0.2-0.2,0.3c-0.1,0.1-0.2,0.1-0.3,0.1c-0.2,0-0.3-0.1-0.4-0.2
							s-0.1-0.3-0.1-0.6c0-0.3,0.1-0.5,0.2-0.7s0.3-0.2,0.5-0.2h0.1c0.1,0,0.1,0,0.1-0.1L121,65c0-0.1,0-0.1-0.1-0.1h-0.1
							c-0.3,0-0.6,0-0.8,0.2c-0.2,0.1-0.4,0.3-0.6,0.6c-0.1,0.3-0.2,0.6-0.3,1c0,0.4,0,0.7,0.1,1s0.3,0.5,0.5,0.7s0.5,0.3,0.8,0.3
							s0.6,0,0.8-0.2c0.2-0.1,0.4-0.3,0.5-0.5s0.2-0.4,0.4-0.8c0.1-0.3,0.2-0.5,0.3-0.7c0.1-0.1,0.2-0.2,0.2-0.3
							c0.1-0.1,0.2-0.1,0.3-0.1c0.2,0,0.3,0.1,0.4,0.2s0.1,0.3,0.1,0.5c0,0.3-0.1,0.5-0.3,0.7c-0.2,0.2-0.3,0.2-0.5,0.2h-0.1
							c0,0-0.1,0-0.1,0.1l-0.1,0.8c0,0.1,0,0.1,0.1,0.1h0.1c0.3,0,0.6,0,0.8-0.2c0.2-0.1,0.4-0.4,0.6-0.6c0.1-0.3,0.2-0.6,0.3-1
							c0-0.3,0-0.6-0.1-0.9C124.1,65.8,123.9,65.5,123.7,65.4z"/>
						<path id="Shape_97_" class="st4" d="M120.6,74.5c-0.1-0.1-0.3-0.2-0.4-0.2c-0.2,0-0.3,0-0.5,0c-0.2,0.1-0.3,0.1-0.4,0.3
							c-0.1,0.1-0.2,0.3-0.2,0.4c0,0.2,0,0.3,0,0.5c0.1,0.2,0.1,0.3,0.3,0.4c0.1,0.1,0.3,0.2,0.4,0.2c0.2,0,0.3,0,0.5,0
							c0.2-0.1,0.3-0.1,0.4-0.3c0.1-0.1,0.2-0.3,0.2-0.4c0-0.2,0-0.3,0-0.5C120.8,74.7,120.7,74.6,120.6,74.5z"/>
					</g>
					<g id="Group_2_" transform="translate(162.000000, 23.000000)">
						<path id="Shape_98_" class="st4" d="M2.2,18c-1-0.9-1.5-2.4-1.5-4.2V5.5c0-0.1,0-0.3,0.1-0.4S1,5,1.2,5h1.9
							c0.1,0,0.3,0,0.4,0.1s0.1,0.2,0.1,0.4v8.3c0,1.1,0.3,1.9,0.8,2.4C4.9,16.7,5.6,17,6.6,17c0.9,0,1.7-0.3,2.2-0.8
							s0.8-1.3,0.8-2.4V5.5c0-0.1,0-0.3,0.1-0.4C9.8,5,9.9,5,10.1,5H12c0.1,0,0.3,0,0.4,0.1c0.1,0.1,0.1,0.2,0.1,0.4v8.3
							c0,1.9-0.5,3.3-1.5,4.2s-2.4,1.4-4.3,1.4C4.7,19.4,3.3,18.9,2.2,18z"/>
						<path id="Shape_99_" class="st4" d="M16.3,19c-0.1-0.1-0.1-0.2-0.1-0.3V5.5c0-0.1,0-0.3,0.1-0.4S16.5,5,16.7,5h1.6
							c0.3,0,0.5,0.1,0.6,0.3l5.8,9V5.4c0-0.1,0-0.3,0.1-0.4s0.2-0.1,0.4-0.1h1.7c0.1,0,0.3,0,0.4,0.1s0.1,0.2,0.1,0.4v13.2
							c0,0.1,0,0.3-0.1,0.4s-0.2,0.1-0.3,0.1h-1.6c-0.3,0-0.5-0.1-0.6-0.3L19,10v8.7c0,0.1,0,0.3-0.1,0.3c-0.1,0.1-0.2,0.1-0.4,0.1
							h-1.7C16.5,19.2,16.4,19.1,16.3,19z"/>
						<path id="Shape_100_" class="st4" d="M31.5,19c-0.1-0.1-0.1-0.2-0.1-0.3V5.4c0-0.1,0-0.3,0.1-0.4s0.2-0.1,0.3-0.1h2
							c0.1,0,0.3,0,0.4,0.1c0.1,0.1,0.1,0.2,0.1,0.4v13.3c0,0.1,0,0.3-0.1,0.3c-0.1,0.1-0.2,0.1-0.4,0.1h-2
							C31.7,19.2,31.6,19.1,31.5,19z"/>
						<path id="Shape_101_" class="st4" d="M41.8,18.6L37.4,5.5c0,0,0-0.1,0-0.2s0-0.2,0.1-0.3s0.2-0.1,0.3-0.1h1.8
							c0.2,0,0.3,0,0.4,0.1s0.2,0.2,0.2,0.3l3.4,10.4L47,5.3c0-0.1,0.1-0.2,0.2-0.3c0.1-0.1,0.3-0.1,0.4-0.1h1.8
							c0.1,0,0.2,0,0.3,0.1s0.1,0.2,0.1,0.3v0.2l-4.3,13.1c-0.1,0.4-0.4,0.6-0.8,0.6h-2.3C42.2,19.2,41.9,19,41.8,18.6z"/>
						<path id="Shape_102_" class="st4" d="M53.1,19C53,18.9,53,18.8,53,18.7V5.5c0-0.1,0-0.3,0.1-0.4C53.2,5,53.3,5,53.5,5h9
							c0.1,0,0.3,0,0.4,0.1C63,5.2,63,5.3,63,5.5v1.4c0,0.1,0,0.3-0.1,0.4s-0.2,0.1-0.4,0.1h-6.7V11H62c0.1,0,0.3,0,0.4,0.1
							c0.1,0.1,0.1,0.2,0.1,0.4v1.3c0,0.1,0,0.3-0.1,0.4c-0.1,0.1-0.2,0.1-0.4,0.1h-6.2V17h6.8c0.1,0,0.3,0,0.4,0.1s0.1,0.2,0.1,0.4
							v1.4c0,0.1,0,0.3-0.1,0.4s-0.2,0.1-0.4,0.1h-9.1C53.3,19.2,53.2,19.1,53.1,19z"/>
						<path id="Shape_103_" class="st4" d="M66.4,19c-0.1-0.1-0.1-0.2-0.1-0.3V5.5c0-0.1,0-0.3,0.1-0.4S66.6,5,66.8,5h5.3
							c1.7,0,3,0.4,3.9,1.2s1.4,1.9,1.4,3.3c0,1-0.2,1.8-0.7,2.5s-1.1,1.2-2,1.5l2.9,5.2c0,0.1,0.1,0.2,0.1,0.2c0,0.1,0,0.2-0.1,0.3
							c-0.1,0.1-0.2,0.1-0.3,0.1h-1.9c-0.2,0-0.4-0.1-0.5-0.2s-0.2-0.2-0.3-0.4L72,13.9h-2.8v4.9c0,0.1,0,0.3-0.1,0.3
							c-0.1,0.1-0.2,0.1-0.4,0.1h-1.9C66.6,19.2,66.5,19.1,66.4,19z M72,11.5c0.8,0,1.4-0.2,1.8-0.5c0.4-0.4,0.6-0.9,0.6-1.6
							c0-0.7-0.2-1.2-0.6-1.6s-1-0.6-1.8-0.6h-2.8v4.3H72L72,11.5z"/>
						<path id="Shape_104_" class="st4" d="M82.6,18.8c-0.9-0.4-1.5-0.8-2-1.4c-0.4-0.6-0.7-1.2-0.7-2c0-0.1,0-0.2,0.1-0.3
							s0.2-0.1,0.3-0.1h1.9c0.1,0,0.3,0,0.4,0.1s0.2,0.2,0.3,0.3c0.1,0.5,0.4,0.8,0.9,1.2c0.5,0.3,1.1,0.5,2,0.5s1.7-0.2,2.1-0.5
							c0.5-0.3,0.7-0.8,0.7-1.3c0-0.4-0.1-0.7-0.4-0.9c-0.2-0.2-0.6-0.5-1.1-0.6c-0.5-0.2-1.2-0.4-2.2-0.7c-1.6-0.4-2.8-0.9-3.5-1.5
							s-1.1-1.5-1.1-2.7c0-0.8,0.2-1.5,0.7-2.1c0.4-0.6,1.1-1.1,1.9-1.5s1.7-0.5,2.8-0.5c1.1,0,2.1,0.2,2.9,0.6s1.4,0.9,1.9,1.5
							c0.4,0.6,0.7,1.2,0.7,1.8c0,0.1,0,0.2-0.1,0.3s-0.2,0.1-0.3,0.1h-1.9c-0.3,0-0.5-0.1-0.6-0.4c-0.1-0.4-0.3-0.8-0.8-1.1
							c-0.5-0.3-1-0.4-1.7-0.4S84.5,7.3,84,7.6c-0.4,0.3-0.6,0.7-0.6,1.2c0,0.4,0.1,0.7,0.3,0.9c0.2,0.2,0.6,0.5,1,0.6
							c0.5,0.2,1.1,0.4,2,0.6c1.2,0.3,2.2,0.6,2.9,0.9c0.7,0.3,1.2,0.8,1.6,1.3c0.3,0.5,0.5,1.2,0.5,2c0,0.9-0.2,1.6-0.7,2.3
							c-0.5,0.6-1.2,1.1-2,1.5c-0.9,0.3-1.9,0.5-3,0.5C84.6,19.4,83.5,19.2,82.6,18.8z"/>
						<path id="Shape_105_" class="st4" d="M94.8,19c-0.1-0.1-0.1-0.2-0.1-0.3V5.4c0-0.1,0-0.3,0.1-0.4s0.2-0.1,0.3-0.1h2
							c0.1,0,0.3,0,0.4,0.1s0.1,0.2,0.1,0.4v13.3c0,0.1,0,0.3-0.1,0.3c-0.1,0.1-0.2,0.1-0.4,0.1h-2C95,19.2,94.9,19.1,94.8,19z"/>
						<path id="Shape_106_" class="st4" d="M105,19c-0.1-0.1-0.1-0.2-0.1-0.3V7.5h-3.8c-0.1,0-0.3,0-0.3-0.1s-0.1-0.2-0.1-0.4V5.5
							c0-0.1,0-0.3,0.1-0.4C100.9,5,101,5,101.2,5h10.4c0.1,0,0.3,0,0.4,0.1s0.1,0.2,0.1,0.4V7c0,0.1,0,0.3-0.1,0.4
							s-0.2,0.1-0.4,0.1h-3.7v11.2c0,0.1,0,0.3-0.1,0.3c-0.1,0.1-0.2,0.1-0.4,0.1h-1.9C105.2,19.2,105.1,19.1,105,19z"/>
						<path id="Shape_107_" class="st4" d="M112.2,19c-0.1-0.1-0.1-0.2-0.1-0.3v-0.2L117,5.4c0.1-0.3,0.4-0.5,0.7-0.5h2.2
							c0.4,0,0.6,0.2,0.7,0.5l4.9,13.1v0.2c0,0.1,0,0.2-0.1,0.3s-0.2,0.1-0.3,0.1h-1.8c-0.3,0-0.5-0.1-0.6-0.4l-0.9-2.5h-6l-0.9,2.5
							c-0.1,0.3-0.3,0.4-0.6,0.4h-1.8C112.3,19.2,112.2,19.1,112.2,19z M118,3.8c-0.1,0-0.2-0.1-0.3-0.2l-2.5-2.1
							c-0.1-0.1-0.1-0.1-0.1-0.2s0-0.2,0.1-0.3s0.2-0.1,0.3-0.1h2.2c0.2,0,0.3,0,0.4,0.1s0.2,0.2,0.3,0.3l1.6,2
							c0.1,0.1,0.1,0.2,0.1,0.3c0,0.2-0.1,0.3-0.3,0.3h-1.4C118.3,3.9,118.1,3.9,118,3.8z M116.5,13.9h4.6l-2.3-6.3L116.5,13.9z"/>
						<path id="Shape_108_" class="st4" d="M1,41.2c-0.1-0.1-0.1-0.2-0.1-0.3V27.7c0-0.1,0-0.3,0.1-0.4s0.2-0.1,0.4-0.1h5
							c4,0,6,1.8,6.1,5.5c0,0.8,0,1.3,0,1.6s0,0.8,0,1.6c-0.1,1.9-0.6,3.3-1.5,4.2c-1,0.9-2.5,1.4-4.5,1.4H1.4
							C1.2,41.4,1.1,41.3,1,41.2z M6.3,39c1.1,0,1.9-0.3,2.4-0.8s0.8-1.3,0.8-2.5c0-0.8,0-1.3,0-1.5s0-0.7,0-1.5
							c0-1.1-0.3-1.9-0.8-2.5c-0.5-0.5-1.4-0.8-2.5-0.8H3.7v9.5L6.3,39L6.3,39z"/>
						<path id="Shape_109_" class="st4" d="M15.4,41.2c-0.1-0.1-0.1-0.2-0.1-0.3V27.7c0-0.1,0-0.3,0.1-0.4s0.2-0.1,0.4-0.1h9
							c0.1,0,0.3,0,0.4,0.1s0.1,0.2,0.1,0.4v1.4c0,0.1,0,0.3-0.1,0.4s-0.2,0.1-0.4,0.1H18v3.6h6.2c0.1,0,0.3,0,0.4,0.1
							s0.1,0.2,0.1,0.4V35c0,0.1,0,0.3-0.1,0.4c-0.1,0.1-0.2,0.1-0.4,0.1H18v3.7h6.8c0.1,0,0.3,0,0.4,0.1s0.1,0.2,0.1,0.4v1.4
							c0,0.1,0,0.3-0.1,0.4c-0.1,0.1-0.2,0.1-0.4,0.1h-9.1C15.6,41.4,15.5,41.3,15.4,41.2z"/>
						<path id="Shape_110_" class="st4" d="M29.4,40.1c-1-1-1.6-2.3-1.7-4c0-0.4,0-1,0-1.9s0-1.5,0-1.9c0.1-1.7,0.6-3,1.7-4
							s2.5-1.4,4.4-1.4c1.2,0,2.3,0.2,3.2,0.6s1.6,1,2,1.6c0.5,0.6,0.7,1.3,0.7,1.9c0,0.1,0,0.2-0.1,0.3c-0.1,0.1-0.2,0.1-0.3,0.1
							h-2.1c-0.1,0-0.2,0-0.3-0.1s-0.1-0.1-0.2-0.3c-0.2-0.5-0.5-0.9-1-1.3s-1.1-0.5-1.9-0.5c-0.9,0-1.7,0.3-2.2,0.8
							s-0.8,1.3-0.8,2.4c0,0.4,0,1,0,1.8s0,1.4,0,1.8c0,1.1,0.3,1.9,0.9,2.4c0.5,0.5,1.3,0.8,2.2,0.8c1,0,1.7-0.3,2.3-0.8
							s0.9-1.3,0.9-2.3v-0.6h-2.5c-0.1,0-0.3,0-0.3-0.1c-0.1-0.1-0.1-0.2-0.1-0.3V34c0-0.1,0-0.3,0.1-0.3c0.1-0.1,0.2-0.1,0.3-0.1
							h4.9c0.1,0,0.3,0,0.4,0.1C40,33.8,40,33.9,40,34v2.2c0,1.1-0.3,2.1-0.8,2.9c-0.5,0.8-1.2,1.5-2.1,1.9c-0.9,0.4-2,0.7-3.2,0.7
							C31.9,41.6,30.4,41.1,29.4,40.1z"/>
						<path id="Shape_111_" class="st4" d="M43,41.2c-0.1-0.1-0.1-0.2-0.1-0.3V27.6c0-0.1,0-0.3,0.1-0.4s0.2-0.1,0.3-0.1h1.9
							c0.1,0,0.3,0,0.4,0.1c0.1,0.1,0.1,0.2,0.1,0.4v11.3h6.4c0.1,0,0.3,0,0.4,0.1s0.1,0.2,0.1,0.3v1.5c0,0.1,0,0.3-0.1,0.3
							c-0.1,0.1-0.2,0.1-0.4,0.1h-8.8C43.2,41.4,43.1,41.3,43,41.2z"/>
						<path id="Shape_112_" class="st4" d="M55.2,41.2c-0.1-0.1-0.1-0.2-0.1-0.3V27.6c0-0.1,0-0.3,0.1-0.4s0.2-0.1,0.3-0.1h2
							c0.1,0,0.3,0,0.4,0.1c0.1,0.1,0.1,0.2,0.1,0.4v13.3c0,0.1,0,0.3-0.1,0.3c-0.1,0.1-0.2,0.1-0.4,0.1h-2
							C55.5,41.4,55.3,41.3,55.2,41.2z"/>
						<path id="Shape_113_" class="st4" d="M70.7,41c-0.9-0.4-1.5-0.8-2-1.4c-0.4-0.6-0.7-1.2-0.7-2c0-0.1,0-0.2,0.1-0.3
							s0.2-0.1,0.3-0.1h1.9c0.1,0,0.3,0,0.4,0.1s0.2,0.2,0.3,0.3c0.1,0.5,0.4,0.8,0.9,1.2c0.5,0.3,1.1,0.5,2,0.5s1.7-0.2,2.1-0.5
							c0.5-0.3,0.7-0.8,0.7-1.3c0-0.4-0.1-0.7-0.4-0.9c-0.2-0.2-0.6-0.5-1.1-0.6c-0.5-0.2-1.2-0.4-2.2-0.7c-1.6-0.4-2.8-0.9-3.5-1.5
							s-1.1-1.5-1.1-2.7c0-0.8,0.2-1.5,0.7-2.1c0.4-0.6,1.1-1.1,1.9-1.5s1.7-0.5,2.8-0.5c1.1,0,2.1,0.2,2.9,0.6s1.4,0.9,1.9,1.5
							c0.4,0.6,0.7,1.2,0.7,1.8c0,0.1,0,0.2-0.1,0.3c-0.1,0.1-0.2,0.1-0.3,0.1H77c-0.3,0-0.5-0.1-0.6-0.4c-0.1-0.4-0.3-0.8-0.8-1.1
							c-0.5-0.3-1-0.4-1.7-0.4s-1.3,0.1-1.8,0.4c-0.4,0.3-0.6,0.7-0.6,1.2c0,0.4,0.1,0.7,0.3,0.9c0.2,0.2,0.6,0.5,1,0.6
							c0.5,0.2,1.1,0.4,2,0.6c1.2,0.3,2.2,0.6,2.9,0.9c0.7,0.3,1.2,0.8,1.6,1.3c0.3,0.5,0.5,1.2,0.5,2c0,0.9-0.2,1.6-0.7,2.3
							c-0.5,0.6-1.2,1.1-2,1.5c-0.9,0.3-1.9,0.5-3,0.5C72.6,41.6,71.5,41.4,70.7,41z"/>
						<path id="Shape_114_" class="st4" d="M84.8,41.2c-0.1-0.1-0.1-0.2-0.1-0.3V29.7h-3.8c-0.1,0-0.3,0-0.3-0.1
							c-0.1-0.1-0.1-0.2-0.1-0.4v-1.5c0-0.1,0-0.3,0.1-0.4s0.2-0.1,0.4-0.1h10.4c0.1,0,0.3,0,0.4,0.1s0.1,0.2,0.1,0.4v1.5
							c0,0.1,0,0.3-0.1,0.4s-0.2,0.1-0.4,0.1h-3.7v11.2c0,0.1,0,0.3-0.1,0.3c-0.1,0.1-0.2,0.1-0.4,0.1h-1.9
							C85,41.4,84.9,41.3,84.8,41.2z"/>
						<path id="Shape_115_" class="st4" d="M95.4,40.2c-1-0.9-1.5-2.4-1.5-4.2v-8.3c0-0.1,0-0.3,0.1-0.4s0.2-0.1,0.4-0.1h1.9
							c0.1,0,0.3,0,0.4,0.1s0.1,0.2,0.1,0.4V36c0,1.1,0.3,1.9,0.8,2.4s1.2,0.8,2.2,0.8c0.9,0,1.7-0.3,2.2-0.8s0.8-1.3,0.8-2.4v-8.3
							c0-0.1,0-0.3,0.1-0.4s0.2-0.1,0.4-0.1h1.9c0.1,0,0.3,0,0.4,0.1s0.1,0.2,0.1,0.4V36c0,1.9-0.5,3.3-1.5,4.2s-2.4,1.4-4.3,1.4
							C97.9,41.6,96.4,41.1,95.4,40.2z"/>
						<path id="Shape_116_" class="st4" d="M108.3,41.2c-0.1-0.1-0.1-0.2-0.1-0.3V27.7c0-0.1,0-0.3,0.1-0.4s0.2-0.1,0.4-0.1h5
							c4,0,6,1.8,6.1,5.5c0,0.8,0,1.3,0,1.6s0,0.8,0,1.6c-0.1,1.9-0.6,3.3-1.5,4.2c-1,0.9-2.5,1.4-4.5,1.4h-5.1
							C108.6,41.4,108.4,41.3,108.3,41.2z M113.6,39c1.1,0,1.9-0.3,2.4-0.8s0.8-1.3,0.8-2.5c0-0.8,0-1.3,0-1.5s0-0.7,0-1.5
							c0-1.1-0.3-1.9-0.8-2.5c-0.5-0.5-1.4-0.8-2.5-0.8H111v9.5L113.6,39L113.6,39z"/>
						<path id="Shape_117_" class="st4" d="M122.5,41.2c-0.1-0.1-0.1-0.2-0.1-0.3V27.6c0-0.1,0-0.3,0.1-0.4s0.2-0.1,0.3-0.1h2
							c0.1,0,0.3,0,0.4,0.1s0.1,0.2,0.1,0.4v13.3c0,0.1,0,0.3-0.1,0.3c-0.1,0.1-0.2,0.1-0.4,0.1h-2
							C122.7,41.4,122.6,41.3,122.5,41.2z"/>
						<path id="Shape_118_" class="st4" d="M1,63.4c-0.1-0.1-0.1-0.2-0.1-0.3V49.9c0-0.1,0-0.3,0.1-0.4s0.2-0.1,0.4-0.1h5
							c4,0,6,1.8,6.1,5.5c0,0.8,0,1.3,0,1.6s0,0.8,0,1.6c-0.1,1.9-0.6,3.3-1.5,4.2c-1,0.9-2.5,1.4-4.5,1.4H1.4
							C1.2,63.6,1.1,63.5,1,63.4z M6.3,61.2c1.1,0,1.9-0.3,2.4-0.8s0.8-1.3,0.8-2.5c0-0.8,0-1.3,0-1.5s0-0.7,0-1.5
							c0-1.1-0.3-1.9-0.8-2.5c-0.5-0.5-1.4-0.8-2.5-0.8H3.7v9.5L6.3,61.2L6.3,61.2z"/>
						<path id="Shape_119_" class="st4" d="M15.6,63.4c-0.1-0.1-0.1-0.2-0.1-0.3V49.8c0-0.1,0-0.3,0.1-0.4c0.1-0.1,0.2-0.1,0.3-0.1
							h2c0.1,0,0.3,0,0.4,0.1s0.1,0.2,0.1,0.4v13.3c0,0.1,0,0.3-0.1,0.3c-0.1,0.1-0.2,0.1-0.4,0.1h-2C15.8,63.6,15.7,63.5,15.6,63.4
							z"/>
						<path id="Shape_120_" class="st4" d="M27.7,63.4c-0.1-0.1-0.1-0.2-0.1-0.3V49.9c0-0.1,0-0.3,0.1-0.4c0.1-0.1,0.2-0.1,0.4-0.1
							H34c1.6,0,2.8,0.3,3.6,1s1.2,1.7,1.2,2.9c0,0.7-0.2,1.3-0.5,1.8s-0.7,0.9-1.2,1.1c0.6,0.3,1.1,0.7,1.4,1.3
							c0.4,0.6,0.6,1.2,0.6,2c0,1.3-0.4,2.3-1.3,3c-0.9,0.8-2,1.2-3.6,1.2H28C27.9,63.6,27.8,63.5,27.7,63.4z M33.6,55.2
							c0.7,0,1.2-0.2,1.6-0.5c0.4-0.3,0.6-0.8,0.6-1.4c0-0.6-0.2-1-0.5-1.3c-0.4-0.3-0.9-0.5-1.6-0.5h-3.2v3.7H33.6z M33.8,61.4
							c0.7,0,1.3-0.2,1.6-0.6c0.4-0.4,0.6-0.9,0.6-1.5s-0.2-1.1-0.6-1.5c-0.4-0.4-0.9-0.6-1.6-0.6h-3.4v4.1L33.8,61.4L33.8,61.4z"/>
						<path id="Shape_121_" class="st4" d="M41.8,63.4c-0.1-0.1-0.1-0.2-0.1-0.3V49.9c0-0.1,0-0.3,0.1-0.4c0.1-0.1,0.2-0.1,0.4-0.1
							h9c0.1,0,0.3,0,0.4,0.1c0.1,0.1,0.1,0.2,0.1,0.4v1.4c0,0.1,0,0.3-0.1,0.4c-0.1,0.1-0.2,0.1-0.4,0.1h-6.7v3.6h6.2
							c0.1,0,0.3,0,0.4,0.1c0.1,0.1,0.1,0.2,0.1,0.4v1.3c0,0.1,0,0.3-0.1,0.4c-0.1,0.1-0.2,0.1-0.4,0.1h-6.2v3.7h6.8
							c0.1,0,0.3,0,0.4,0.1c0.1,0.1,0.1,0.2,0.1,0.4v1.4c0,0.1,0,0.3-0.1,0.4c-0.1,0.1-0.2,0.1-0.4,0.1h-9.1
							C42,63.6,41.9,63.5,41.8,63.4z"/>
						<path id="Shape_122_" class="st4" d="M54.7,63.4c-0.1-0.1-0.1-0.2-0.1-0.3V49.9c0-0.1,0-0.3,0.1-0.4c0.1-0.1,0.2-0.1,0.4-0.1
							h5.3c1.7,0,3,0.4,3.9,1.2s1.4,1.9,1.4,3.3c0,1-0.2,1.8-0.7,2.5s-1.1,1.2-2,1.5l2.9,5.2c0,0.1,0.1,0.2,0.1,0.2
							c0,0.1,0,0.2-0.1,0.3s-0.2,0.1-0.3,0.1h-1.9c-0.2,0-0.4-0.1-0.5-0.2c-0.1-0.1-0.2-0.2-0.3-0.4l-2.6-4.8h-2.8v4.9
							c0,0.1,0,0.3-0.1,0.3c-0.1,0.1-0.2,0.1-0.4,0.1h-1.9C54.9,63.6,54.8,63.5,54.7,63.4z M60.3,55.9c0.8,0,1.4-0.2,1.8-0.5
							c0.4-0.4,0.6-0.9,0.6-1.6s-0.2-1.2-0.6-1.6c-0.4-0.4-1-0.6-1.8-0.6h-2.8v4.3L60.3,55.9L60.3,55.9z"/>
						<path id="Shape_123_" class="st4" d="M69.8,62.3c-1-1-1.6-2.3-1.7-4c0-0.4,0-1,0-1.9s0-1.5,0-1.9c0.1-1.7,0.6-3,1.7-4
							s2.5-1.4,4.4-1.4c1.2,0,2.3,0.2,3.2,0.6c0.9,0.4,1.6,1,2,1.6c0.5,0.6,0.7,1.3,0.7,1.9c0,0.1,0,0.2-0.1,0.3s-0.2,0.1-0.3,0.1
							h-2.1c-0.1,0-0.2,0-0.3-0.1c-0.1-0.1-0.1-0.1-0.2-0.3c-0.2-0.5-0.5-0.9-1-1.3c-0.5-0.4-1.1-0.5-1.9-0.5
							c-0.9,0-1.7,0.3-2.2,0.8s-0.8,1.3-0.8,2.4c0,0.4,0,1,0,1.8s0,1.4,0,1.8c0,1.1,0.3,1.9,0.9,2.4c0.5,0.5,1.3,0.8,2.2,0.8
							c1,0,1.7-0.3,2.3-0.8s0.9-1.3,0.9-2.3v-0.6H75c-0.1,0-0.3,0-0.3-0.1c-0.1-0.1-0.1-0.2-0.1-0.3v-1.1c0-0.1,0-0.3,0.1-0.3
							c0.1-0.1,0.2-0.1,0.3-0.1h4.9c0.1,0,0.3,0,0.4,0.1s0.1,0.2,0.1,0.3v2.2c0,1.1-0.3,2.1-0.8,2.9s-1.2,1.5-2.1,1.9
							s-2,0.7-3.2,0.7C72.3,63.8,70.9,63.3,69.8,62.3z"/>
						<path id="Shape_124_" class="st4" d="M81.8,63.4c-0.1-0.1-0.1-0.2-0.1-0.3v-0.2l4.9-13.1c0.1-0.3,0.4-0.5,0.7-0.5h2.2
							c0.4,0,0.6,0.2,0.7,0.5l4.9,13.1v0.2c0,0.1,0,0.2-0.1,0.3s-0.2,0.1-0.3,0.1H93c-0.3,0-0.5-0.1-0.6-0.4l-0.9-2.5h-6l-0.9,2.5
							c-0.1,0.3-0.3,0.4-0.6,0.4h-1.8C82,63.6,81.9,63.5,81.8,63.4z M86.2,58.4h4.6l-2.3-6.3L86.2,58.4z"/>
						<path id="Shape_125_" class="st4" d="M97.7,63.4c-0.1-0.1-0.1-0.2-0.1-0.3V49.9c0-0.1,0-0.3,0.1-0.4c0.1-0.1,0.2-0.1,0.4-0.1
							h1.6c0.3,0,0.5,0.1,0.6,0.4l3.9,7.3l3.9-7.3c0.1-0.3,0.4-0.4,0.6-0.4h1.6c0.1,0,0.3,0,0.4,0.1s0.1,0.2,0.1,0.4v13.2
							c0,0.1,0,0.3-0.1,0.4c-0.1,0.1-0.2,0.1-0.4,0.1h-1.7c-0.1,0-0.3,0-0.3-0.1c-0.1-0.1-0.1-0.2-0.1-0.3v-8.7l-2.8,5.4
							c-0.1,0.3-0.4,0.4-0.7,0.4h-0.9c-0.3,0-0.5-0.1-0.7-0.4l-2.8-5.4v8.7c0,0.1,0,0.3-0.1,0.3c-0.1,0.1-0.2,0.1-0.4,0.1h-1.7
							C97.9,63.6,97.8,63.5,97.7,63.4z"/>
						<path id="Shape_126_" class="st4" d="M115,62.4c-1-0.9-1.6-2.3-1.6-4.2c0-0.4,0-1,0-1.7c0-0.8,0-1.4,0-1.7
							c0.1-1.8,0.6-3.2,1.7-4.1c1.1-1,2.5-1.4,4.3-1.4s3.2,0.5,4.3,1.4c1.1,0.9,1.6,2.3,1.7,4.1c0,0.8,0,1.4,0,1.7
							c0,0.4,0,0.9,0,1.7c-0.1,1.8-0.6,3.2-1.6,4.2c-1,0.9-2.5,1.4-4.3,1.4C117.4,63.8,116,63.3,115,62.4z M121.4,60.6
							c0.5-0.5,0.8-1.4,0.9-2.5c0-0.8,0-1.4,0-1.6c0-0.3,0-0.9,0-1.6c0-1.1-0.3-1.9-0.9-2.5c-0.5-0.5-1.3-0.8-2.1-0.8
							c-0.9,0-1.6,0.3-2.2,0.8c-0.5,0.5-0.8,1.4-0.9,2.5c0,0.4,0,0.9,0,1.6s0,1.2,0,1.6c0,1.1,0.3,1.9,0.8,2.5
							c0.5,0.5,1.3,0.8,2.2,0.8C120.2,61.4,120.9,61.1,121.4,60.6z"/>
					</g>
					<rect id="Rectangle-path_2_" x="142.9" y="27.7" class="st4" width="1" height="59"/>
				</g>
			</g>
		</g>
	</g>
</g>
</svg>
